<?xml version="1.0" standalone="yes"?>
<svg xmlns="http://www.w3.org/2000/svg" width="431" height="106">
<path style="fill:#e6f1f5; stroke:none;" d="M0 0L0 106L65 106C74.5129 106 86.7473 108.062 95.9606 105.682C98.7843 104.953 100.395 102.368 103.09 101.487C112.865 98.2912 124.632 114.007 131 100L136 101L136 32L135 32C127.851 35.5779 122.351 22.5055 129.439 22.6736C131.493 22.7223 134.031 24.3799 136 25L136 0L125 0C126.232 1.64627 128.298 3.41199 129.137 5.28935C131.904 11.4816 115.883 11.019 122 0L0 0z"/>
<path style="fill:#71bedc; stroke:none;" d="M13 0L14 1L13 0M38 0L39 1L38 0M63 0L64 1L63 0M88 0L89 1L88 0M113 0L114 1L113 0M122.063 1.17516C115.246 3.82722 122.941 12.9049 127.655 10.8248C133.885 8.07602 127.099 -0.783737 122.063 1.17516z"/>
<path style="fill:#377a9d; stroke:none;" d="M136 0C136 34.7556 132.645 71.5414 137 106L138 106C137.521 82.7797 136.29 59.3724 137.035 36C137.358 25.89 139.908 9.31445 136 0z"/>
<path style="fill:#71bedc; stroke:none;" d="M137 0L137 30L138 30L139 0L137 0z"/>
<path style="fill:#e6f1f5; stroke:none;" d="M139 0L138.255 27.7145L138 83L139 83L140.019 49L141 0L139 0z"/>
<path style="fill:#225e76; stroke:none;" d="M141 0L141 100L142 100L142 31L141 0z"/>
<path style="fill:#e6f1f5; stroke:none;" d="M142 0L142 77L171 80L170 84L179 84L180 84C183.537 81.8377 187.42 81.31 190 85L191 85C192.169 82.1072 192.991 81.6621 195 84L196 81C198.899 82.0203 200.308 82.2276 201 79L204 79L204 82L205 82L206 79L207 79L213 85L214 85L216 81L216 86L220 87L220 70C214.116 71.1417 209.71 71.6419 208 78L182 76L184 72L184 38L183 38L180 50L170 47L171 57C176.686 56.7154 183.482 64.0763 177.667 68.929C171.004 74.4902 163.331 71.6487 156 69.5795C153.365 68.8359 147.596 68.3539 147.241 64.8526C146.494 57.4905 153.999 49.3194 154 41L149 41L150 28C145.38 24.4831 146.519 22.0745 150 18L154 21L154 16L169 16L170 29L184 35L185 13L199 13L200 34C202.555 32.3715 205.04 30.4016 208 29.5718C223.501 25.2258 225.84 44.2434 239 46C237.363 42.0301 234.567 38.4129 234.225 34C232.274 8.81645 262.681 16.1925 276 20C274.603 23.3553 272.586 30.2942 268.787 31.5826C266.258 32.4401 251.224 24.6603 251.331 31.1057C251.404 35.4857 264.759 37.8752 268 39.6481C278.595 45.4444 278.174 51.4615 276 62L279 61C283.615 76.6508 265.293 75.5781 254 77C253.432 69.708 244.56 69.4349 246 77L224 78L223 86L224 86L225 81L232 84L240 83L240 79L242 79L242 86L243 86L248 79L251 84L260 83L260 81C263.162 81.4544 271.492 79.6069 271 84L271 85L271 86L273 89C270.176 89.0743 268.401 90.1059 268 87L267 87C260.272 95.0216 256.115 95.4416 252 86L251 86L251 89L245 89L246 97L216 99L217 87L210 92L212 89L209 83L210 88C206.188 90.6723 206.092 94.5845 206 99L189 101L188 101L174 98L177 89L172 85L171 85L167 89L165 98L142 94L142 102C173.562 108.121 213.39 110.529 245 103C248.92 108.436 260.862 106 267 106C276.273 106 288.029 107.928 297 105.502C308.085 102.503 318.369 94.4259 329 90C331.28 99.1655 322.914 101.374 316 105L316 106L431 106L431 0L142 0z"/>
<path style="fill:#71bedc; stroke:none;" d="M163 0L164 1L163 0M188 0L189 1L188 0M213 0L214 1L213 0M238 0L239 1L238 0M263 0L264 1L263 0M288 0L289 1L288 0M313 0L314 1L313 0M338 0L339 1L338 0M363 0L364 1L363 0M388 0L389 1L388 0M413 0L414 1L413 0M70 5L71 6L70 5z"/>
<path style="fill:#377a9d; stroke:none;" d="M71 5L72 6L71 5z"/>
<path style="fill:#225e76; stroke:none;" d="M72 5L72 6L76 6L72 5z"/>
<path style="fill:#377a9d; stroke:none;" d="M76 5L77 6L76 5z"/>
<path style="fill:#71bedc; stroke:none;" d="M77 5L78 6L77 5z"/>
<path style="fill:#377a9d; stroke:none;" d="M68 6L69 7L68 6z"/>
<path style="fill:#225e76; stroke:none;" d="M69 6L70 7L69 6z"/>
<path style="fill:#09354d; stroke:none;" d="M67 7L67 8L69 10L65 8L65 11L61 15L64 18L60 16C59.8881 25.4746 50.669 40.1529 57.0278 49.6821C58.7553 52.2709 62.2748 51.9805 65 51.9992C70.7134 52.0386 88.3887 54.9133 91.2577 48.7716C96.1553 38.2872 88.9323 26.7641 87 17L86 17L86 19L85 19L87 16C83.9752 6.61197 75.7057 5.38474 67 7z"/>
<path style="fill:#225e76; stroke:none;" d="M77.6667 6.33334L78.3333 6.66666L77.6667 6.33334z"/>
<path style="fill:#377a9d; stroke:none;" d="M79 6L80 7L79 6M66 7L67 8L66 7z"/>
<path style="fill:#225e76; stroke:none;" d="M80 7L81 8L80 7z"/>
<path style="fill:#71bedc; stroke:none;" d="M81 7L82 8L81 7z"/>
<path style="fill:#225e76; stroke:none;" d="M66 8L66 9L69 10L66 8M79 8L77 12L81 11L79 8M82 8L83 9L82 8M65 9L66 10L65 9M63.6667 10.3333L64.3333 10.6667L63.6667 10.3333M67 10L68 11L67 10M69 10L70 11L69 10M71 10L70 12L71 10z"/>
<path style="fill:#377a9d; stroke:none;" d="M84 10L85 11L84 10z"/>
<path style="fill:#71bedc; stroke:none;" d="M366 14L366 15L374 16L376 14C373.329 9.32599 369.852 11.6904 366 14z"/>
<path style="fill:#225e76; stroke:none;" d="M62 11L63 12L62 11M65 11L67 13L65 11z"/>
<path style="fill:#377a9d; stroke:none;" d="M71 11L72 12L71 11z"/>
<path style="fill:#71bedc; stroke:none;" d="M72 11L72 12L76 12L72 11z"/>
<path style="fill:#377a9d; stroke:none;" d="M76 11L77 12L76 11z"/>
<path style="fill:#225e76; stroke:none;" d="M82 11L83 12L82 11z"/>
<path style="fill:#377a9d; stroke:none;" d="M85 11L86 12L85 11z"/>
<path style="fill:#71bedc; stroke:none;" d="M61 12L62 13L61 12z"/>
<path style="fill:#225e76; stroke:none;" d="M63 12L64 13L63 12z"/>
<path style="fill:#71bedc; stroke:none;" d="M69 12L68 14L69 12z"/>
<path style="fill:#e6f1f5; stroke:none;" d="M82 24C81.9499 21.66 81.9966 19.2327 81.1065 17.0177C75.6617 3.46956 58.693 21.2946 74.9985 23.8519C77.2693 24.208 79.7081 23.9997 82 24z"/>
<path style="fill:#377a9d; stroke:none;" d="M78 12L79 13L78 12z"/>
<path style="fill:#225e76; stroke:none;" d="M80 12L80 15L81 15L80 12z"/>
<path style="fill:#71bedc; stroke:none;" d="M86 12L87 13L86 12z"/>
<path style="fill:#225e76; stroke:none;" d="M61 13L62 14L61 13M64 13L64 15L66 15L64 13z"/>
<path style="fill:#71bedc; stroke:none;" d="M79 13L80 14L79 13z"/>
<path style="fill:#225e76; stroke:none;" d="M83 13L84 14L83 13z"/>
<path style="fill:#377a9d; stroke:none;" d="M86 13L87 14L86 13z"/>
<path style="fill:#71bedc; stroke:none;" d="M185 13L184 35L170 26L169 26C170.343 30.046 173.065 29.9534 177 30L177 41L169 41L169 50L170 50L170 47L180 50L183 38L184 38L184 52L185 52L185 13M189 13L190 14L189 13M198 13L199 31L200 31L198 13M60 14L61 15L60 14z"/>
<path style="fill:#377a9d; stroke:none;" d="M67 14L68 15L67 14z"/>
<path style="fill:#71bedc; stroke:none;" d="M87.3333 14.6667L87.6667 15.3333L87.3333 14.6667z"/>
<path style="fill:#09354d; stroke:none;" d="M185 14L185 61L211 64L210 71C216.814 70.8352 225.109 65.2383 228 59C219.217 56.5001 218.593 43.1312 229 44C224.66 28.9708 209.877 24.832 199 36L199 14L185 14z"/>
<path style="fill:#71bedc; stroke:none;" d="M255.667 14.3333L256.333 14.6667L255.667 14.3333z"/>
<path style="fill:#377a9d; stroke:none;" d="M60 15L61 16L60 15z"/>
<path style="fill:#225e76; stroke:none;" d="M61 15L64 18L61 15z"/>
<path style="fill:#377a9d; stroke:none;" d="M66 15L67 16L66 15z"/>
<path style="fill:#225e76; stroke:none;" d="M81 15L82 16L81 15z"/>
<path style="fill:#71bedc; stroke:none;" d="M248 15L249 16L248 15z"/>
<path style="fill:#225e76; stroke:none;" d="M249 15L250 16L249 15z"/>
<path style="fill:#09354d; stroke:none;" d="M245 45L253 50L254 46L275 46C268.949 37.8075 258.873 39.6578 252.377 33.3025C246.504 27.5572 259.638 28.8934 262 29.6952C264.694 30.6098 267.195 31.5174 270 32L275 20C263.716 16.1828 250.372 10.9076 240.108 20.3295C232.98 26.873 232.053 45.4705 245 45z"/>
<path style="fill:#377a9d; stroke:none;" d="M261 15L262 16L261 15z"/>
<path style="fill:#71bedc; stroke:none;" d="M262 15L263 16L262 15z"/>
<path style="fill:#09354d; stroke:none;" d="M284 15L284 70L299 70L297 51L287 55C284.522 44.588 289.625 42.6371 299 42C299 27.0606 302.363 15 284 15z"/>
<path style="fill:#225e76; stroke:none;" d="M295 15L295 16L298 19L295 15z"/>
<path style="fill:#377a9d; stroke:none;" d="M298 15L299 16L298 15z"/>
<path style="fill:#71bedc; stroke:none;" d="M299 15L299 22L300 22L299 15M308 15L308 40L309 40L308 15z"/>
<path style="fill:#377a9d; stroke:none;" d="M309 15L309 43C315.013 37.0039 322.08 16.5012 309 15z"/>
<path style="fill:#225e76; stroke:none;" d="M313 15L313 16C321.108 25.3141 311.173 36.4995 309 46C315.84 40.1208 323.458 20.4881 313 15z"/>
<path style="fill:#09354d; stroke:none;" d="M315 15C321.369 27.6714 313.229 35.2049 309.56 47C307.453 53.7766 309 62.9345 309 70L320 64L321 70L348 70L348 58L324 58L324 48C329.293 47.1614 339.998 41.4357 343 37L329 40C328.346 36.9461 326.993 37.0642 324 37L324 28L347 28L347 15L315 15z"/>
<path style="fill:#377a9d; stroke:none;" d="M347 15L348 16L347 15z"/>
<path style="fill:#71bedc; stroke:none;" d="M355 15L348 28L344 28L344 29L355 27L354 34L355 34L355 15z"/>
<path style="fill:#09354d; stroke:none;" d="M356 15L356 19L363 16L356 15z"/>
<path style="fill:#225e76; stroke:none;" d="M356 27L373 17C364.659 10.6809 356.031 18.2464 356 27z"/>
<path style="fill:#377a9d; stroke:none;" d="M372 15L373 16L372 15z"/>
<path style="fill:#71bedc; stroke:none;" d="M374 18L376 24C382.961 19.5901 382.581 13.377 374 18z"/>
<path style="fill:#377a9d; stroke:none;" d="M396 15L397 16L396 15z"/>
<path style="fill:#09354d; stroke:none;" d="M385 42L384 42L372 16L357.028 27.2091L356 40L356 70L371 70L371 42L372 42C373.599 47.8461 378.082 65.1513 386.787 61.3958C391.991 59.1506 395.281 47.0482 397 42L398 42L398 70L413 70L413 15C408.615 15 401.217 13.5867 397.39 16.0278C391.361 19.8741 386.904 35.3397 385 42z"/>
<path style="fill:#71bedc; stroke:none;" d="M66 16L66 24L72 24L66 16M81.3333 16.6667L81.6667 17.3333L81.3333 16.6667z"/>
<path style="fill:#225e76; stroke:none;" d="M85 19L86 19L86 17L87 17L87 20L88 20L88 16L85 19z"/>
<path style="fill:#71bedc; stroke:none;" d="M154 16L154 17L157 17L154 16z"/>
<path style="fill:#377a9d; stroke:none;" d="M157 16L158 17L157 16z"/>
<path style="fill:#71bedc; stroke:none;" d="M158 16L158 17L168 17L158 16z"/>
<path style="fill:#377a9d; stroke:none;" d="M168 16L169 17L168 16z"/>
<path style="fill:#71bedc; stroke:none;" d="M245 16L246 17L245 16z"/>
<path style="fill:#377a9d; stroke:none;" d="M265 16L266 17L265 16z"/>
<path style="fill:#71bedc; stroke:none;" d="M266 16L267 17L266 16z"/>
<path style="fill:#225e76; stroke:none;" d="M347 16L347 24L348 24L347 16z"/>
<path style="fill:#377a9d; stroke:none;" d="M154 17L155 18L154 17z"/>
<path style="fill:#09354d; stroke:none;" d="M155 17L155 32L154 32L150 30L150 40C163.097 43.9758 146.315 67.9989 164 70.7863C166.265 71.1432 168.727 71.0724 171 70.8264C174.263 70.4733 177.097 69.4571 180 68L178 58C167.481 57.8757 172.718 51.7103 166.682 47.0887C164.226 45.2082 158.716 45.4156 157.983 41.7724C157.125 37.5079 161.853 31.1625 163 27L169 28L169 17L155 17z"/>
<path style="fill:#377a9d; stroke:none;" d="M243 17L244 18L243 17M268 17L269 18L268 17z"/>
<path style="fill:#71bedc; stroke:none;" d="M269 17L270 18L269 17z"/>
<path style="fill:#377a9d; stroke:none;" d="M373 17L374 18L373 17M395 17L396 18L395 17z"/>
<path style="fill:#71bedc; stroke:none;" d="M149 18C142.627 25.6482 150.088 25.6499 149 30L154 30L154 21L149 18z"/>
<path style="fill:#225e76; stroke:none;" d="M154 18L155 19L154 18z"/>
<path style="fill:#71bedc; stroke:none;" d="M241 18L242 19L241 18z"/>
<path style="fill:#225e76; stroke:none;" d="M242 18L243 19L242 18M270 18L271 19L270 18z"/>
<path style="fill:#71bedc; stroke:none;" d="M271 18L272 19L271 18z"/>
<path style="fill:#377a9d; stroke:none;" d="M154 19L154 30L155 30L154 19M240 19L241 20L240 19z"/>
<path style="fill:#71bedc; stroke:none;" d="M273 19L274 20L273 19z"/>
<path style="fill:#377a9d; stroke:none;" d="M374 19L375 20L374 19M394 19L395 20L394 19z"/>
<path style="fill:#71bedc; stroke:none;" d="M169 20L170 21L169 20z"/>
<path style="fill:#377a9d; stroke:none;" d="M239 20L240 21L239 20z"/>
<path style="fill:#71bedc; stroke:none;" d="M275.333 20.6667L275.667 21.3333L275.333 20.6667M135 34C135.454 32.087 136.061 30.0956 135.812 28.0995C134.442 17.1288 117.036 25.7165 129.98 32.5432C131.616 33.4064 133.212 33.6762 135 34z"/>
<path style="fill:#377a9d; stroke:none;" d="M238 21L239 22L238 21M375 21L376 22L375 21z"/>
<path style="fill:#71bedc; stroke:none;" d="M378 26L380 32L390 26C388.078 18.7382 382.323 23.3477 378 26M393 21L394 22L393 21M59.3333 22.6667L59.6667 23.3333L59.3333 22.6667z"/>
<path style="fill:#225e76; stroke:none;" d="M155 22L155 30C159.026 27.6739 159.388 24.0361 155 22z"/>
<path style="fill:#71bedc; stroke:none;" d="M237 22L238 23L237 22z"/>
<path style="fill:#225e76; stroke:none;" d="M375 22L376 23L375 22z"/>
<path style="fill:#377a9d; stroke:none;" d="M274 23L275 24L274 23z"/>
<path style="fill:#71bedc; stroke:none;" d="M392 23L393 24L392 23M57 24L56 26L57 24z"/>
<path style="fill:#377a9d; stroke:none;" d="M58 24L59 25L58 24z"/>
<path style="fill:#225e76; stroke:none;" d="M61 24L57 29L59 28L57 30L57 31L61 51L63 48C57.4463 47.2742 60.679 31.593 59 27L62 28L61 24M83 24L83 28L87 28L83 24M86 24L88 26L86 24M88.6667 24.3333L89.3333 24.6667L88.6667 24.3333z"/>
<path style="fill:#71bedc; stroke:none;" d="M169 24L170 25L169 24z"/>
<path style="fill:#377a9d; stroke:none;" d="M236 24L237 25L236 24z"/>
<path style="fill:#225e76; stroke:none;" d="M313 24L315 27L313 24z"/>
<path style="fill:#377a9d; stroke:none;" d="M347 24L348 25L347 24z"/>
<path style="fill:#225e76; stroke:none;" d="M376 24L377 25L376 24z"/>
<path style="fill:#71bedc; stroke:none;" d="M13 25L14 26L13 25M38.6667 25.3333L39.3333 25.6667L38.6667 25.3333z"/>
<path style="fill:#225e76; stroke:none;" d="M57 25L58 26L57 25M90 25L91 26L90 25z"/>
<path style="fill:#71bedc; stroke:none;" d="M113 25L114 26L113 25M213 25L214 26L213 25M273 25L274 26L273 25z"/>
<path style="fill:#225e76; stroke:none;" d="M347 25L348 26L347 25z"/>
<path style="fill:#71bedc; stroke:none;" d="M391 25L392 26L391 25M413 25L414 26L413 25z"/>
<path style="fill:#225e76; stroke:none;" d="M56 26L57 27L56 26z"/>
<path style="fill:#377a9d; stroke:none;" d="M91 26L92 27L91 26z"/>
<path style="fill:#71bedc; stroke:none;" d="M235 26L236 27L235 26z"/>
<path style="fill:#225e76; stroke:none;" d="M272 26L273 27L272 26z"/>
<path style="fill:#377a9d; stroke:none;" d="M347.333 26.6667L347.667 27.3333L347.333 26.6667M377 26L378 27L377 26z"/>
<path style="fill:#225e76; stroke:none;" d="M391 26L392 27L391 26z"/>
<path style="fill:#71bedc; stroke:none;" d="M55 27L55 49L56 49L55 27z"/>
<path style="fill:#225e76; stroke:none;" d="M88 27L89 28L88 27M91 27L92 28L91 27z"/>
<path style="fill:#71bedc; stroke:none;" d="M140 27L141 28L140 27z"/>
<path style="fill:#225e76; stroke:none;" d="M163 27C157.915 39.9235 155.023 42.6159 169 48L169 40L177 40C176.969 31.1657 171.364 28.3262 163 27M235 27L236 28L235 27z"/>
<path style="fill:#71bedc; stroke:none;" d="M272 27L273 28L272 27z"/>
<path style="fill:#225e76; stroke:none;" d="M341 27L342 28L341 27z"/>
<path style="fill:#e6f1f5; stroke:none;" d="M354 27L342 29L342 30L345 31L337 35L337 36L346 38L348 37L345 49L326 55L328 50L325 49L325 57L355 46L354 27z"/>
<path style="fill:#71bedc; stroke:none;" d="M390 27L381 34L384 40L385 40L390 27z"/>
<path style="fill:#225e76; stroke:none;" d="M66.3333 28.6667L66.6667 29.3333L66.3333 28.6667M251 28L252 29L251 28z"/>
<path style="fill:#71bedc; stroke:none;" d="M252 28L253 29L252 28M254 28L255 29L254 28M256 28L257 29L256 28z"/>
<path style="fill:#377a9d; stroke:none;" d="M257 28L258 29L257 28z"/>
<path style="fill:#225e76; stroke:none;" d="M258 28L259 29L258 28M271 28L272 29L271 28z"/>
<path style="fill:#377a9d; stroke:none;" d="M324.667 28.3333L325.333 28.6667L324.667 28.3333z"/>
<path style="fill:#71bedc; stroke:none;" d="M326 28L326 29L337 29L326 28z"/>
<path style="fill:#377a9d; stroke:none;" d="M337 28L337 29L344 29L337 28M378 28L379 29L378 28z"/>
<path style="fill:#225e76; stroke:none;" d="M390 28L391 29L390 28M56 29L57 30L56 29M86 30L86 31L90 32L91 29L86 30z"/>
<path style="fill:#377a9d; stroke:none;" d="M150.667 29.3333L151.333 29.6667L150.667 29.3333M169 29L170 30L169 29M207 29L208 30L207 29z"/>
<path style="fill:#225e76; stroke:none;" d="M208 29L209 30L208 29z"/>
<path style="fill:#377a9d; stroke:none;" d="M216 29L217 30L216 29z"/>
<path style="fill:#71bedc; stroke:none;" d="M217 29L218 30L217 29M234 29L234 32L235 32L234 29M250.333 29.6667L250.667 30.3333L250.333 29.6667M260 29L261 30L260 29z"/>
<path style="fill:#377a9d; stroke:none;" d="M261 29L262 30L261 29z"/>
<path style="fill:#71bedc; stroke:none;" d="M271 29L272 30L271 29z"/>
<path style="fill:#e6f1f5; stroke:none;" d="M324 29C324.43 33.551 325.117 35.6111 330 36L338 30L324 29z"/>
<path style="fill:#71bedc; stroke:none;" d="M330 36C335.916 35.9504 340.398 34.842 345 31C339.555 28.4282 332.037 29.6923 330 36z"/>
<path style="fill:#225e76; stroke:none;" d="M91 30L92 31L91 30z"/>
<path style="fill:#71bedc; stroke:none;" d="M140 30L141 31L140 30z"/>
<path style="fill:#377a9d; stroke:none;" d="M149 30L149 40L150 40L149 30z"/>
<path style="fill:#225e76; stroke:none;" d="M152 30L152 31L155 32L152 30z"/>
<path style="fill:#09354d; stroke:none;" d="M174 30L177 32L174 30z"/>
<path style="fill:#71bedc; stroke:none;" d="M204 30L205 31L204 30z"/>
<path style="fill:#225e76; stroke:none;" d="M205 30L206 31L205 30z"/>
<path style="fill:#71bedc; stroke:none;" d="M219 30L220 31L219 30M263 30L264 31L263 30z"/>
<path style="fill:#225e76; stroke:none;" d="M264 30L265 31L264 30z"/>
<path style="fill:#377a9d; stroke:none;" d="M270 30L271 31L270 30z"/>
<path style="fill:#71bedc; stroke:none;" d="M324 30L325 31L324 30z"/>
<path style="fill:#377a9d; stroke:none;" d="M379 30L380 31L379 30z"/>
<path style="fill:#225e76; stroke:none;" d="M389 30L390 31L389 30z"/>
<path style="fill:#71bedc; stroke:none;" d="M137 31L138 106L141 99L140 99L140 102L139 102L138 93L140 95L141 95L140 82L138 83C138.26 68.4639 142.619 44.3908 137 31z"/>
<path style="fill:#377a9d; stroke:none;" d="M199 31L200 32L199 31M203 31L204 32L203 31z"/>
<path style="fill:#225e76; stroke:none;" d="M220 31L221 32L220 31z"/>
<path style="fill:#71bedc; stroke:none;" d="M221 31L222 32L221 31M265 31L266 32L265 31z"/>
<path style="fill:#377a9d; stroke:none;" d="M266 31L267 32L266 31z"/>
<path style="fill:#71bedc; stroke:none;" d="M270 31L271 32L270 31z"/>
<path style="fill:#225e76; stroke:none;" d="M379 31L380 32L379 31M71 32L70 34L71 32z"/>
<path style="fill:#377a9d; stroke:none;" d="M74 32L75 33L74 32z"/>
<path style="fill:#225e76; stroke:none;" d="M77.3333 32.6667L77.6667 33.3333L77.3333 32.6667M79 32L80 33L79 32z"/>
<path style="fill:#71bedc; stroke:none;" d="M199.333 32.6667L199.667 33.3333L199.333 32.6667z"/>
<path style="fill:#377a9d; stroke:none;" d="M222 32L223 33L222 32M234 32L235 33L234 32M250 32L251 33L250 32z"/>
<path style="fill:#71bedc; stroke:none;" d="M267 32L268 33L267 32z"/>
<path style="fill:#225e76; stroke:none;" d="M268.667 32.3333L269.333 32.6667L268.667 32.3333z"/>
<path style="fill:#377a9d; stroke:none;" d="M355 32L355 35L356 35L355 32M380 32L381 33L380 32z"/>
<path style="fill:#225e76; stroke:none;" d="M388 32L389 33L388 32z"/>
<path style="fill:#377a9d; stroke:none;" d="M71 33L70 35L71 33z"/>
<path style="fill:#71bedc; stroke:none;" d="M72 33L73 34L72 33z"/>
<path style="fill:#e6f1f5; stroke:none;" d="M75 44C75.2103 42.263 75.6245 40.6916 75.9414 38.9799C77.5815 30.1193 66.1851 37.7151 75 44z"/>
<path style="fill:#71bedc; stroke:none;" d="M75 33L76 34L75 33z"/>
<path style="fill:#225e76; stroke:none;" d="M201 33L202 34L201 33z"/>
<path style="fill:#377a9d; stroke:none;" d="M223 33L224 34L223 33z"/>
<path style="fill:#225e76; stroke:none;" d="M234.333 33.6667L234.667 34.3333L234.333 33.6667z"/>
<path style="fill:#377a9d; stroke:none;" d="M251 33L252 34L251 33z"/>
<path style="fill:#225e76; stroke:none;" d="M380 33L381 34L380 33z"/>
<path style="fill:#377a9d; stroke:none;" d="M387.333 33.6667L387.667 34.3333L387.333 33.6667z"/>
<path style="fill:#71bedc; stroke:none;" d="M76 34L77 35L76 34z"/>
<path style="fill:#377a9d; stroke:none;" d="M199.667 34.3333L200.333 34.6667L199.667 34.3333M224 34L225 35L224 34M253 34L254 35L253 34z"/>
<path style="fill:#71bedc; stroke:none;" d="M254 34L255 35L254 34M324.333 34.6667L324.667 35.3333L324.333 34.6667z"/>
<path style="fill:#225e76; stroke:none;" d="M64 35L65 36L64 35z"/>
<path style="fill:#71bedc; stroke:none;" d="M70 35L71 39L72 39L70 35z"/>
<path style="fill:#225e76; stroke:none;" d="M199 35L200 36L199 35z"/>
<path style="fill:#71bedc; stroke:none;" d="M225 35L226 36L225 35z"/>
<path style="fill:#377a9d; stroke:none;" d="M234 35L235 36L234 35M256 35L257 36L256 35z"/>
<path style="fill:#71bedc; stroke:none;" d="M257 35L258 36L257 35M355 35L355 40L356 40L355 35z"/>
<path style="fill:#225e76; stroke:none;" d="M381 35L382 36L381 35M387 35L388 36L387 35z"/>
<path style="fill:#377a9d; stroke:none;" d="M77 36L78 37L77 36z"/>
<path style="fill:#71bedc; stroke:none;" d="M234 36L235 37L234 36z"/>
<path style="fill:#225e76; stroke:none;" d="M259 36L260 37L259 36z"/>
<path style="fill:#71bedc; stroke:none;" d="M260 36L261 37L260 36M299 36L299 47L300 47L299 36z"/>
<path style="fill:#225e76; stroke:none;" d="M324 36L324 37L327 37L324 36z"/>
<path style="fill:#377a9d; stroke:none;" d="M327 36L327 37L338 37L327 36z"/>
<path style="fill:#225e76; stroke:none;" d="M338 36L338 37L343 37L328 48L343 49L343 48L341 47C346.476 43.4501 344.189 36.4822 338 36z"/>
<path style="fill:#377a9d; stroke:none;" d="M343 36L344 37L343 36z"/>
<path style="fill:#71bedc; stroke:none;" d="M344 36L344 44C348.069 42.8096 349.353 41.0865 348 37L346 38L344 36z"/>
<path style="fill:#377a9d; stroke:none;" d="M382 36L383 37L382 36M386 36L387 37L386 36z"/>
<path style="fill:#225e76; stroke:none;" d="M65.3333 37.6667L65.6667 38.3333L65.3333 37.6667M77 37L78 38L77 37M226 37L227 38L226 37M262 37L263 38L262 37z"/>
<path style="fill:#71bedc; stroke:none;" d="M263 37L264 38L263 37z"/>
<path style="fill:#225e76; stroke:none;" d="M329 40L336 38C333.121 36.341 329.772 36.3984 329 40M382 37L383 38L382 37M386 37L387 38L386 37M70 38L71 39L70 38z"/>
<path style="fill:#71bedc; stroke:none;" d="M76 38L77 39L76 38z"/>
<path style="fill:#225e76; stroke:none;" d="M192 38L189 51L187 54L201 57C197.86 49.5886 200.974 46.6582 204 40L200 38L199 38L197 40L192 38z"/>
<path style="fill:#71bedc; stroke:none;" d="M227 38L228 39L227 38z"/>
<path style="fill:#225e76; stroke:none;" d="M265 38L266 39L265 38z"/>
<path style="fill:#377a9d; stroke:none;" d="M344 38L345 39L344 38M383 38L384 39L383 38M385 38L386 39L385 38z"/>
<path style="fill:#225e76; stroke:none;" d="M71 39L72 40L71 39z"/>
<path style="fill:#71bedc; stroke:none;" d="M75 39L75 43L76 43L75 39z"/>
<path style="fill:#225e76; stroke:none;" d="M77 39L78 40L77 39z"/>
<path style="fill:#09354d; stroke:none;" d="M199 39L200 40L199 39z"/>
<path style="fill:#225e76; stroke:none;" d="M227 39L228 40L227 39z"/>
<path style="fill:#377a9d; stroke:none;" d="M235 39L236 40L235 39z"/>
<path style="fill:#71bedc; stroke:none;" d="M268 39L269 40L268 39z"/>
<path style="fill:#225e76; stroke:none;" d="M383 39L384 40L383 39M385 39L386 40L385 39z"/>
<path style="fill:#71bedc; stroke:none;" d="M149 40L150 41L149 40z"/>
<path style="fill:#225e76; stroke:none;" d="M150 40L150 41L153 41L150 40z"/>
<path style="fill:#377a9d; stroke:none;" d="M153 40L154 41L153 40M169 40L169 41L177 41L169 40M199 40L200 41L199 40M202 40L203 41L202 40z"/>
<path style="fill:#225e76; stroke:none;" d="M205.667 40.3333L206.333 40.6667L205.667 40.3333M269 40L270 41L269 40z"/>
<path style="fill:#377a9d; stroke:none;" d="M344 40L345 41L344 40M384 40L385 41L384 40z"/>
<path style="fill:#225e76; stroke:none;" d="M77 41L78 42L77 41z"/>
<path style="fill:#377a9d; stroke:none;" d="M154 41L155 42L154 41M203 43L206 42L203 43z"/>
<path style="fill:#71bedc; stroke:none;" d="M200 56L201 56L202 54L213 57L215 48L214 48L213 51C213.018 44.6792 207.898 36.9945 201.728 44.3943C198.983 47.6857 199.586 52.0837 200 56z"/>
<path style="fill:#377a9d; stroke:none;" d="M209 41L210 42L209 41z"/>
<path style="fill:#225e76; stroke:none;" d="M210 41L211 42L210 41z"/>
<path style="fill:#377a9d; stroke:none;" d="M228 41L229 42L228 41z"/>
<path style="fill:#71bedc; stroke:none;" d="M236 41L237 42L236 41M271 41L272 42L271 41z"/>
<path style="fill:#225e76; stroke:none;" d="M384 41L385 42L384 41M79 42L79 46L80 46L79 42z"/>
<path style="fill:#71bedc; stroke:none;" d="M140 42L140 55L141 55L140 42z"/>
<path style="fill:#225e76; stroke:none;" d="M154 42L154 62L155 62L154 42z"/>
<path style="fill:#377a9d; stroke:none;" d="M211 42L213 44L211 42z"/>
<path style="fill:#225e76; stroke:none;" d="M212 42L213 43L212 42M237 42L238 43L237 42M272 42L273 43L272 42M287 55L297 51L298 55L299 55L296 47L299 48L299 42C289.525 42.2424 283.853 44.3535 287 55z"/>
<path style="fill:#377a9d; stroke:none;" d="M371 42L372 43L371 42M397 42L398 43L397 42z"/>
<path style="fill:#71bedc; stroke:none;" d="M72 43L74 46L75 45L74 43L72 43z"/>
<path style="fill:#377a9d; stroke:none;" d="M75 43L74 46L75 43z"/>
<path style="fill:#225e76; stroke:none;" d="M213.333 43.6667L213.667 44.3333L213.333 43.6667M228 59C229.767 53.4109 230.068 48.531 228 43C218.373 44.2734 218.651 57.4252 228 59M238 43L239 44L238 43z"/>
<path style="fill:#377a9d; stroke:none;" d="M273 43L274 44L273 43z"/>
<path style="fill:#e6f1f5; stroke:none;" d="M371.333 43.6667L371.667 44.3333L371.333 43.6667z"/>
<path style="fill:#225e76; stroke:none;" d="M396 43L397 44L396 43z"/>
<path style="fill:#71bedc; stroke:none;" d="M397 43L397 47L398 47L397 43M229 44L229 58C231.824 57.9257 233.599 56.8941 234 60L235 60L238 52L245 55L247 48L229 44z"/>
<path style="fill:#377a9d; stroke:none;" d="M239 44L240 45L239 44z"/>
<path style="fill:#225e76; stroke:none;" d="M242 44L243 45L242 44z"/>
<path style="fill:#377a9d; stroke:none;" d="M274 44L275 45L274 44z"/>
<path style="fill:#71bedc; stroke:none;" d="M308 44L308 51L309 51L308 44z"/>
<path style="fill:#377a9d; stroke:none;" d="M344 44L345 45L344 44z"/>
<path style="fill:#71bedc; stroke:none;" d="M355 44L333 56L333 57C341.934 57 347.161 56.4387 355 52L349 69L356 67L355 44z"/>
<path style="fill:#225e76; stroke:none;" d="M372 44L373 45L372 44z"/>
<path style="fill:#e6f1f5; stroke:none;" d="M397 44L398 45L397 44z"/>
<path style="fill:#225e76; stroke:none;" d="M64 45L65 46L64 45M71.3333 45.6667L71.6667 46.3333L71.3333 45.6667z"/>
<path style="fill:#377a9d; stroke:none;" d="M72 45L73 46L72 45z"/>
<path style="fill:#225e76; stroke:none;" d="M75 45L76 46L75 45z"/>
<path style="fill:#377a9d; stroke:none;" d="M200 45L201 46L200 45M213 45L214 46L213 45M229 45L229 48L230 48L229 45z"/>
<path style="fill:#225e76; stroke:none;" d="M241 45L242 46L241 45M243 45L246 48L243 45M254 46L253 50C256.273 51.4103 261.368 52.8934 259 57L259 58C268.631 57.5546 281.845 57.8061 274 45L273 45L271 47L254 46z"/>
<path style="fill:#71bedc; stroke:none;" d="M275 45L277 56L278 56C278 51.7209 278.736 47.6943 275 45M344.333 45.6667L344.667 46.3333L344.333 45.6667M371 45L371 52L375 51L371 45z"/>
<path style="fill:#225e76; stroke:none;" d="M77 46L78 47L77 46z"/>
<path style="fill:#377a9d; stroke:none;" d="M199 46L199 50L200 50L199 46z"/>
<path style="fill:#225e76; stroke:none;" d="M214.333 46.6667L214.667 47.3333L214.333 46.6667z"/>
<path style="fill:#377a9d; stroke:none;" d="M242 46L243 47L242 46M271 46L272 47L271 46M275 46L276 47L275 46z"/>
<path style="fill:#09354d; stroke:none;" d="M343 46L341 47L341 48L343 46z"/>
<path style="fill:#225e76; stroke:none;" d="M373 46L374 47L373 46z"/>
<path style="fill:#377a9d; stroke:none;" d="M395 46L396 47L395 46z"/>
<path style="fill:#225e76; stroke:none;" d="M70 47L71 50L70 47z"/>
<path style="fill:#e6f1f5; stroke:none;" d="M213 47L212 50L213 47M234 47L235 48L234 47z"/>
<path style="fill:#377a9d; stroke:none;" d="M244 47L245 48L244 47M296 47L299 50L296 47M344 47L343 49L344 47M373 47L374 48L373 47z"/>
<path style="fill:#225e76; stroke:none;" d="M57 48L59 50L57 48M73 48L73 50L75 50L75 48L73 48M89 48L86 49L86 50L90 49L89 48z"/>
<path style="fill:#e6f1f5; stroke:none;" d="M245 48L246 49L245 48z"/>
<path style="fill:#377a9d; stroke:none;" d="M247 48L248 49L247 48z"/>
<path style="fill:#71bedc; stroke:none;" d="M299 48L299 65L300 65L299 48z"/>
<path style="fill:#225e76; stroke:none;" d="M324 48L324 49L327 49L324 48z"/>
<path style="fill:#377a9d; stroke:none;" d="M327 48L327 49L340 49L327 48z"/>
<path style="fill:#71bedc; stroke:none;" d="M344 48L345 49L344 48z"/>
<path style="fill:#377a9d; stroke:none;" d="M394 48L395 49L394 48z"/>
<path style="fill:#71bedc; stroke:none;" d="M397 48L398 49L397 48z"/>
<path style="fill:#225e76; stroke:none;" d="M83 49L84 50L83 49z"/>
<path style="fill:#377a9d; stroke:none;" d="M91 49L92 50L91 49z"/>
<path style="fill:#e6f1f5; stroke:none;" d="M245 50L245 55L254 57C253.806 51.1507 250.846 48.7852 245 50z"/>
<path style="fill:#71bedc; stroke:none;" d="M249 49L250 50L249 49z"/>
<path style="fill:#225e76; stroke:none;" d="M250 49L251 50L250 49z"/>
<path style="fill:#377a9d; stroke:none;" d="M276 49L277 50L276 49z"/>
<path style="fill:#71bedc; stroke:none;" d="M324 49L324 52L325 52L324 49M327 49L326 55L336 50L327 49z"/>
<path style="fill:#377a9d; stroke:none;" d="M374 49L375 50L374 49z"/>
<path style="fill:#71bedc; stroke:none;" d="M13 50L14 51L13 50M38 50L39 51L38 50M56 50L57 51L56 50M91 50L92 51L91 50M113 50L114 51L113 50z"/>
<path style="fill:#377a9d; stroke:none;" d="M213 50L214 51L213 50M238 50L239 51L238 50z"/>
<path style="fill:#71bedc; stroke:none;" d="M252 50L253 51L252 50z"/>
<path style="fill:#377a9d; stroke:none;" d="M253 50L254 51L253 50z"/>
<path style="fill:#71bedc; stroke:none;" d="M338 50L339 51L338 50z"/>
<path style="fill:#225e76; stroke:none;" d="M393 50L394 51L393 50z"/>
<path style="fill:#71bedc; stroke:none;" d="M413 50L414 51L413 50z"/>
<path style="fill:#377a9d; stroke:none;" d="M57 51L58 52L57 51M89 51L90 52L89 51z"/>
<path style="fill:#71bedc; stroke:none;" d="M90 51L91 52L90 51M153 51C145.993 61.2514 144.272 67.9817 158 70L153 51z"/>
<path style="fill:#377a9d; stroke:none;" d="M214.333 51.6667L214.667 52.3333L214.333 51.6667z"/>
<path style="fill:#71bedc; stroke:none;" d="M254 51L254 58L261 56L254 51z"/>
<path style="fill:#377a9d; stroke:none;" d="M256.667 51.3333L257.333 51.6667L256.667 51.3333z"/>
<path style="fill:#71bedc; stroke:none;" d="M375 51L376 52L375 51M393 51L394 52L393 51M64 52L64 53L76.1304 57.4051L85 53L64 52z"/>
<path style="fill:#377a9d; stroke:none;" d="M70 52L70 53L79 53L70 52M184.333 52.6667L184.667 53.3333L184.333 52.6667M199 52L199 55L200 55L199 52z"/>
<path style="fill:#e6f1f5; stroke:none;" d="M213.333 52.6667L213.667 53.3333L213.333 52.6667z"/>
<path style="fill:#377a9d; stroke:none;" d="M229 52L229 55L230 55L229 52z"/>
<path style="fill:#225e76; stroke:none;" d="M238 52L235 59C239.493 58.4379 244.345 60.1034 246 55L238 52z"/>
<path style="fill:#377a9d; stroke:none;" d="M239 52L240 53L239 52z"/>
<path style="fill:#e6f1f5; stroke:none;" d="M349 61C352.933 58.6505 354.649 56.6219 355 52C350.357 53.8216 348.437 55.9352 349 61z"/>
<path style="fill:#225e76; stroke:none;" d="M392 52L393 53L392 52z"/>
<path style="fill:#71bedc; stroke:none;" d="M169 53C170.057 56.4917 171.418 57.432 175 58L175 57L171 57L169 53z"/>
<path style="fill:#225e76; stroke:none;" d="M214 53L215 54L214 53z"/>
<path style="fill:#377a9d; stroke:none;" d="M241 53L242 54L241 53M260 53L261 54L260 53z"/>
<path style="fill:#71bedc; stroke:none;" d="M324 53L324 57L325 57L324 53z"/>
<path style="fill:#377a9d; stroke:none;" d="M376 53L377 54L376 53z"/>
<path style="fill:#71bedc; stroke:none;" d="M392 53L393 54L392 53M397.333 53.6667L397.667 54.3333L397.333 53.6667M184 54L184 59L185 59L184 54z"/>
<path style="fill:#e6f1f5; stroke:none;" d="M201 54C202.764 59.4432 207.413 58.8969 212 57L212 56L201 54z"/>
<path style="fill:#377a9d; stroke:none;" d="M237 54L238 55L237 54M243 54L244 55L243 54z"/>
<path style="fill:#71bedc; stroke:none;" d="M375 54L379 60L377 54L375 54z"/>
<path style="fill:#225e76; stroke:none;" d="M391 54L392 55L391 54z"/>
<path style="fill:#377a9d; stroke:none;" d="M213 55L214 56L213 55z"/>
<path style="fill:#71bedc; stroke:none;" d="M246 55L247 56L246 55M308 55L309 56L308 55z"/>
<path style="fill:#225e76; stroke:none;" d="M377 55L378 56L377 55z"/>
<path style="fill:#71bedc; stroke:none;" d="M391 55L392 56L391 55z"/>
<path style="fill:#377a9d; stroke:none;" d="M169 56L170 57L169 56z"/>
<path style="fill:#09354d; stroke:none;" d="M246 56C241.083 60.5561 234.734 56.5063 233 65L246 65L246 70L254 71C254.761 61.024 267.178 61.4618 275 62L277 56L246 56z"/>
<path style="fill:#377a9d; stroke:none;" d="M248 56L249 57L248 56z"/>
<path style="fill:#71bedc; stroke:none;" d="M249 56L250 57L249 56z"/>
<path style="fill:#377a9d; stroke:none;" d="M260 56L261 57L260 56M377 56L378 57L377 56z"/>
<path style="fill:#71bedc; stroke:none;" d="M397 56L398 57L397 56M105 57L106 58L105 57z"/>
<path style="fill:#377a9d; stroke:none;" d="M106 57L107 58L106 57z"/>
<path style="fill:#71bedc; stroke:none;" d="M107 57L108 58L107 57z"/>
<path style="fill:#377a9d; stroke:none;" d="M170 57L171 58L170 57M175 57L176 58L175 57z"/>
<path style="fill:#225e76; stroke:none;" d="M176.667 57.3333L177.333 57.6667L176.667 57.3333z"/>
<path style="fill:#377a9d; stroke:none;" d="M211 57L212 58L211 57z"/>
<path style="fill:#e6f1f5; stroke:none;" d="M233 57C228.727 59.0548 227.011 61.3598 226 66L232 66L233 57z"/>
<path style="fill:#225e76; stroke:none;" d="M251 57L252 58L251 57z"/>
<path style="fill:#377a9d; stroke:none;" d="M252.667 57.3333L253.333 57.6667L252.667 57.3333M258 57L259 58L258 57z"/>
<path style="fill:#225e76; stroke:none;" d="M276 57L277 58L276 57z"/>
<path style="fill:#377a9d; stroke:none;" d="M324 57L324 58L327 58L324 57z"/>
<path style="fill:#71bedc; stroke:none;" d="M327 57L327 58L330 58L327 57z"/>
<path style="fill:#377a9d; stroke:none;" d="M330 57L330 58L348 58L330 57z"/>
<path style="fill:#225e76; stroke:none;" d="M378 57L379 58L378 57z"/>
<path style="fill:#377a9d; stroke:none;" d="M390 57L391 58L390 57z"/>
<path style="fill:#71bedc; stroke:none;" d="M102 58L103 59L102 58z"/>
<path style="fill:#377a9d; stroke:none;" d="M103 58L104 59L103 58z"/>
<path style="fill:#09354d; stroke:none;" d="M96 62L96 63L108 59L96 62z"/>
<path style="fill:#377a9d; stroke:none;" d="M108 58L109 59L108 58M203 58L204 59L203 58z"/>
<path style="fill:#71bedc; stroke:none;" d="M204 58L205 59L204 58M208 58L209 59L208 58z"/>
<path style="fill:#377a9d; stroke:none;" d="M209 58L210 59L209 58z"/>
<path style="fill:#225e76; stroke:none;" d="M210 58L211 59L210 58z"/>
<path style="fill:#377a9d; stroke:none;" d="M228 58L229 59L228 58z"/>
<path style="fill:#225e76; stroke:none;" d="M255.667 58.3333L256.333 58.6667L255.667 58.3333z"/>
<path style="fill:#377a9d; stroke:none;" d="M276 58L277 59L276 58z"/>
<path style="fill:#71bedc; stroke:none;" d="M348.333 58.6667L348.667 59.3333L348.333 58.6667z"/>
<path style="fill:#377a9d; stroke:none;" d="M355 58L355 64L356 64L355 58M378 58L379 59L378 58z"/>
<path style="fill:#71bedc; stroke:none;" d="M99 59L100 60L99 59z"/>
<path style="fill:#377a9d; stroke:none;" d="M100 59L101 60L100 59z"/>
<path style="fill:#225e76; stroke:none;" d="M105 59L106 60L105 59z"/>
<path style="fill:#377a9d; stroke:none;" d="M106 59L107 60L106 59z"/>
<path style="fill:#71bedc; stroke:none;" d="M107 59L105 64L111 61L107 59M178 59L179 60L178 59z"/>
<path style="fill:#377a9d; stroke:none;" d="M184 59L185 60L184 59z"/>
<path style="fill:#71bedc; stroke:none;" d="M276 59L277 60L276 59z"/>
<path style="fill:#225e76; stroke:none;" d="M294.333 59.6667L294.667 60.3333L294.333 59.6667z"/>
<path style="fill:#377a9d; stroke:none;" d="M389 59L390 60L389 59z"/>
<path style="fill:#71bedc; stroke:none;" d="M97 60L98 61L97 60z"/>
<path style="fill:#225e76; stroke:none;" d="M98 60L99 61L98 60z"/>
<path style="fill:#377a9d; stroke:none;" d="M103 60L104 61L103 60z"/>
<path style="fill:#71bedc; stroke:none;" d="M104 60L105 61L104 60M114 60L115 61L114 60z"/>
<path style="fill:#377a9d; stroke:none;" d="M115 60L115 61L118 62L115 60z"/>
<path style="fill:#71bedc; stroke:none;" d="M117 60L118 61L117 60z"/>
<path style="fill:#377a9d; stroke:none;" d="M178 60L179 61L178 60z"/>
<path style="fill:#71bedc; stroke:none;" d="M184 60L184 64L185 64L184 60z"/>
<path style="fill:#225e76; stroke:none;" d="M185 70L197 70L197 64C202.684 68.871 209.49 74.568 211 64C201.002 60.4556 185.01 56.5708 185 70M227 60L228 61L227 60M275 60L276 61L275 60z"/>
<path style="fill:#377a9d; stroke:none;" d="M348 60L348 67L349 67L348 60z"/>
<path style="fill:#71bedc; stroke:none;" d="M379 60L380 61L379 60M94 61L96 63L94 61z"/>
<path style="fill:#377a9d; stroke:none;" d="M95 61L96 62L95 61z"/>
<path style="fill:#225e76; stroke:none;" d="M96 61L97 62L96 61M100 61L101 62L100 61z"/>
<path style="fill:#377a9d; stroke:none;" d="M101 61L102 62L101 61M111 61L112 62L111 61z"/>
<path style="fill:#225e76; stroke:none;" d="M112 61L112 64L115 63L115 62L112 61z"/>
<path style="fill:#09354d; stroke:none;" d="M113 61L113 62L116 62L113 61z"/>
<path style="fill:#225e76; stroke:none;" d="M116 61L117 62L116 61M178 61L179 62L178 61z"/>
<path style="fill:#71bedc; stroke:none;" d="M227 61L228 62L227 61M233 61L234 62L233 61z"/>
<path style="fill:#225e76; stroke:none;" d="M254 71C262.668 70.9761 269.694 69.355 275 62C266.992 61.1197 254.335 60.7879 254 71z"/>
<path style="fill:#377a9d; stroke:none;" d="M275 61L276 62L275 61z"/>
<path style="fill:#71bedc; stroke:none;" d="M253 71L254 77C264.705 76.1835 285.489 76.5381 279 61C268.873 65.3127 264.982 70.9987 253 71z"/>
<path style="fill:#225e76; stroke:none;" d="M388 61L389 62L388 61z"/>
<path style="fill:#71bedc; stroke:none;" d="M40.6667 62.3333L41.3333 62.6667L40.6667 62.3333z"/>
<path style="fill:#377a9d; stroke:none;" d="M42 62L42 63L51 63L42 62z"/>
<path style="fill:#71bedc; stroke:none;" d="M51.6667 62.3333L52.3333 62.6667L51.6667 62.3333z"/>
<path style="fill:#225e76; stroke:none;" d="M98 62L99 63L98 62z"/>
<path style="fill:#377a9d; stroke:none;" d="M99 62L100 63L99 62z"/>
<path style="fill:#71bedc; stroke:none;" d="M100 62L101 63L100 62z"/>
<path style="fill:#377a9d; stroke:none;" d="M108 62L109 63L108 62z"/>
<path style="fill:#225e76; stroke:none;" d="M109.667 62.3333L110.333 62.6667L109.667 62.3333z"/>
<path style="fill:#09354d; stroke:none;" d="M111 62C106.266 64.2437 101.593 65.6199 100 71L106 65C108.484 64.8817 111.488 64.9589 111 62z"/>
<path style="fill:#377a9d; stroke:none;" d="M115 62L116 63L115 62z"/>
<path style="fill:#71bedc; stroke:none;" d="M116 62L117 63L116 62z"/>
<path style="fill:#377a9d; stroke:none;" d="M154.333 62.6667L154.667 63.3333L154.333 62.6667z"/>
<path style="fill:#225e76; stroke:none;" d="M226 62L227 63L226 62z"/>
<path style="fill:#71bedc; stroke:none;" d="M17 63L17 64L22 64L17 63z"/>
<path style="fill:#377a9d; stroke:none;" d="M22 63L22 64L27 64L22 63z"/>
<path style="fill:#71bedc; stroke:none;" d="M27 63L28 64L27 63M36.6667 63.3333L37.3333 63.6667L36.6667 63.3333z"/>
<path style="fill:#377a9d; stroke:none;" d="M38 63L39 64L38 63z"/>
<path style="fill:#225e76; stroke:none;" d="M39 63L40 64L39 63z"/>
<path style="fill:#09354d; stroke:none;" d="M34 68L34 67L37 64L33 68C30.7006 66.3276 28.407 63.7757 26 66L25 66C21.4239 61.9076 15.0739 64.9595 11 67C11.6656 74.0887 8.72151 90.5513 14.25 95.6944C19.1529 100.256 28.6483 95.6643 33.6111 94.0833C37.7902 92.752 44.5958 93.8777 49 94C59.1745 94.2826 69.8168 96.167 80 95.6944C83.1521 95.5482 89.0192 95.36 89 92C94.14 92.2961 97.2524 89.4793 101.576 87.0841C110.155 82.331 126.487 76.7701 128 66C123.467 65.076 118.957 64.9843 116 69C113.556 68.6973 112.972 68.5631 113 71C106.84 70.981 102.587 75.9186 97 78.0455C87.0239 81.8437 70.2485 84.3497 60 81C68.6418 74.5902 80.3682 79.0266 89.8102 75.2191C96.3955 72.5636 91.726 66.8023 87 66L92 70L89 75L91 71C77.9858 61.8626 47.6028 60.3386 34 68z"/>
<path style="fill:#225e76; stroke:none;" d="M43 63L44 64L43 63M47 63L48 64L47 63M54 63L55 64L54 63z"/>
<path style="fill:#377a9d; stroke:none;" d="M55 63L56 64L55 63z"/>
<path style="fill:#71bedc; stroke:none;" d="M56 63L57 64L56 63M96.6667 63.3333L97.3333 63.6667L96.6667 63.3333z"/>
<path style="fill:#377a9d; stroke:none;" d="M106 63L107 64L106 63z"/>
<path style="fill:#225e76; stroke:none;" d="M107 63L108 64L107 63z"/>
<path style="fill:#377a9d; stroke:none;" d="M113 63L114 64L113 63z"/>
<path style="fill:#71bedc; stroke:none;" d="M103 69L103 70C109.093 71.8157 114.131 68.6247 119 65C112.594 62.6298 108.804 66.8031 103 69M232 63L233 64L232 63z"/>
<path style="fill:#377a9d; stroke:none;" d="M274 63L275 64L274 63z"/>
<path style="fill:#71bedc; stroke:none;" d="M397 63L398 64L397 63M13 64L14 65L13 64z"/>
<path style="fill:#225e76; stroke:none;" d="M13 66L16 64L13 66M25.3333 64.6667L25.6667 65.3333L25.3333 64.6667M28 64L29 65L28 64z"/>
<path style="fill:#377a9d; stroke:none;" d="M29 64L30 65L29 64z"/>
<path style="fill:#71bedc; stroke:none;" d="M33 64L34 65L33 64z"/>
<path style="fill:#377a9d; stroke:none;" d="M34 64L35 65L34 64z"/>
<path style="fill:#225e76; stroke:none;" d="M35 64L36 65L35 64M37 64L34 67L34 68L37 64M58 64L59 65L58 64z"/>
<path style="fill:#377a9d; stroke:none;" d="M59 64L60 65L59 64z"/>
<path style="fill:#71bedc; stroke:none;" d="M60.6667 64.3333L61.3333 64.6667L60.6667 64.3333z"/>
<path style="fill:#377a9d; stroke:none;" d="M104 64L105 65L104 64z"/>
<path style="fill:#225e76; stroke:none;" d="M105 64L106 65L105 64z"/>
<path style="fill:#377a9d; stroke:none;" d="M111 64L112 65L111 64z"/>
<path style="fill:#71bedc; stroke:none;" d="M121 64L122 65L121 64z"/>
<path style="fill:#377a9d; stroke:none;" d="M122 64L123 65L122 64z"/>
<path style="fill:#225e76; stroke:none;" d="M123 64L125 66L125 64L123 64z"/>
<path style="fill:#377a9d; stroke:none;" d="M125 64L126 65L125 64z"/>
<path style="fill:#71bedc; stroke:none;" d="M126 64L128 66L126 64M179 64L180 65L179 64z"/>
<path style="fill:#377a9d; stroke:none;" d="M184 64C184.272 72.2711 191.323 71.9736 198 70L198 69L185 70L184 64M197 64L202 69L197 64z"/>
<path style="fill:#225e76; stroke:none;" d="M218 70L225 64C221.076 64.8002 219.523 66.3139 218 70z"/>
<path style="fill:#71bedc; stroke:none;" d="M225 64L219 69L220 80L246 77L247 70L235 68L225 64z"/>
<path style="fill:#225e76; stroke:none;" d="M232 64L233 65L232 64M233 65L246 70L246 65L233 65z"/>
<path style="fill:#377a9d; stroke:none;" d="M273 64L274 65L273 64z"/>
<path style="fill:#225e76; stroke:none;" d="M312 70L321 70L320 64L312 70z"/>
<path style="fill:#377a9d; stroke:none;" d="M12 65L13 66L12 65M30 65L30 66L33 66L30 65z"/>
<path style="fill:#225e76; stroke:none;" d="M33 65L34 66L33 65M60 65L61 66L60 65M69 65L69 66L83 66L69 65z"/>
<path style="fill:#377a9d; stroke:none;" d="M83 65L84 66L83 65z"/>
<path style="fill:#225e76; stroke:none;" d="M84 65L85 66L84 65z"/>
<path style="fill:#377a9d; stroke:none;" d="M85 65L85 66L89 66L85 65z"/>
<path style="fill:#71bedc; stroke:none;" d="M89.6667 65.3333L90.3333 65.6667L89.6667 65.3333M102 65L103 66L102 65z"/>
<path style="fill:#377a9d; stroke:none;" d="M103 65L104 66L103 65z"/>
<path style="fill:#225e76; stroke:none;" d="M106 65L106 66L110 66L106 65z"/>
<path style="fill:#377a9d; stroke:none;" d="M119 65L120 66L119 65z"/>
<path style="fill:#225e76; stroke:none;" d="M120 65L121 66L120 65M126 65L127 66L126 65M155 65L156 66L155 65M179 65L180 66L179 65z"/>
<path style="fill:#377a9d; stroke:none;" d="M224 65L225 66L224 65M272 65L273 66L272 65M11 66L12 67L11 66z"/>
<path style="fill:#225e76; stroke:none;" d="M31 66L31 68L33 68L31 66M63 66L64 67L63 66M86 66L91 71L89 75L92 70L86 66M88 66L89 67L88 66z"/>
<path style="fill:#377a9d; stroke:none;" d="M91 66L92 67L91 66z"/>
<path style="fill:#71bedc; stroke:none;" d="M92 66L93 67L92 66z"/>
<path style="fill:#377a9d; stroke:none;" d="M101 66L102 67L101 66M108 66L109 67L108 66M116.667 66.3333L117.333 66.6667L116.667 66.3333z"/>
<path style="fill:#225e76; stroke:none;" d="M118 66L119 67L118 66z"/>
<path style="fill:#71bedc; stroke:none;" d="M128 66L129 67L128 66M197 66L198 70L183 69L184 72L182 76L208 78L213 72L213 71L197 66z"/>
<path style="fill:#377a9d; stroke:none;" d="M223 66L224 67L223 66M271 66L272 67L271 66z"/>
<path style="fill:#225e76; stroke:none;" d="M295 66L296 67L295 66M12 67L13 68L12 67M17.6667 67.3333L18.3333 67.6667L17.6667 67.3333M61 67L62 68L61 67M92 67L93 68L92 67z"/>
<path style="fill:#377a9d; stroke:none;" d="M99.3333 67.6667L99.6667 68.3333L99.3333 67.6667z"/>
<path style="fill:#225e76; stroke:none;" d="M100 67L101 68L100 67M105 67L104 69L105 67z"/>
<path style="fill:#377a9d; stroke:none;" d="M106 67L107 68L106 67z"/>
<path style="fill:#225e76; stroke:none;" d="M115.333 67.6667L115.667 68.3333L115.333 67.6667M121 67L121 68L124 68L121 67M126 67L127 68L126 67z"/>
<path style="fill:#377a9d; stroke:none;" d="M128 67L129 68L128 67M156 67L157 68L156 67M204 67L205 68L204 67z"/>
<path style="fill:#e6f1f5; stroke:none;" d="M235 67L236 68L235 67z"/>
<path style="fill:#377a9d; stroke:none;" d="M237 67L238 68L237 67M243 67L244 68L243 67M270 67L271 68L270 67z"/>
<path style="fill:#225e76; stroke:none;" d="M290.667 67.3333L291.333 67.6667L290.667 67.3333M348.333 67.6667L348.667 68.3333L348.333 67.6667z"/>
<path style="fill:#71bedc; stroke:none;" d="M10 68L10 75L11 75L10 68z"/>
<path style="fill:#225e76; stroke:none;" d="M23 68L24 69L23 68M65 68L65 69L70 70L65 68M90 68L91 69L90 68z"/>
<path style="fill:#377a9d; stroke:none;" d="M93 68L94 69L93 68z"/>
<path style="fill:#225e76; stroke:none;" d="M101 68L102 69L101 68z"/>
<path style="fill:#377a9d; stroke:none;" d="M105 68L106 69L105 68M113 68L114 69L113 68z"/>
<path style="fill:#225e76; stroke:none;" d="M117 71L121 72L122 69L117 71M127.667 68.3333L128.333 68.6667L127.667 68.3333z"/>
<path style="fill:#377a9d; stroke:none;" d="M157 68L158 69L157 68z"/>
<path style="fill:#225e76; stroke:none;" d="M179 68L180 69L179 68z"/>
<path style="fill:#377a9d; stroke:none;" d="M220 68L221 69L220 68M240 68L241 69L240 68M268 68L269 69L268 68z"/>
<path style="fill:#71bedc; stroke:none;" d="M355 68C352.453 76.2833 332.717 80.0644 341 91L342 90L340 82L347 82L347 86L348 86L349 81L355 83L365 72L365 71L355 68M397 68L398 69L397 68z"/>
<path style="fill:#225e76; stroke:none;" d="M11 69L12 70L11 69M35.3333 69.6667L35.6667 70.3333L35.3333 69.6667M58.6667 69.3333L59.3333 69.6667L58.6667 69.3333M62.6667 69.3333L63.3333 69.6667L62.6667 69.3333M86 69L87 70L86 69M93 69L94 70L93 69M102 69L103 70L102 69z"/>
<path style="fill:#377a9d; stroke:none;" d="M111 69L112 70L111 69z"/>
<path style="fill:#225e76; stroke:none;" d="M114 69L115 70L114 69z"/>
<path style="fill:#09354d; stroke:none;" d="M118.667 69.3333L119.333 69.6667L118.667 69.3333z"/>
<path style="fill:#377a9d; stroke:none;" d="M128 69L129 70L128 69M158 69L159 70L158 69z"/>
<path style="fill:#225e76; stroke:none;" d="M159 69L160 70L159 69z"/>
<path style="fill:#377a9d; stroke:none;" d="M177 69L178 70L177 69M204 69L205 70L204 69M243 69L244 70L243 69M266 69L267 70L266 69z"/>
<path style="fill:#71bedc; stroke:none;" d="M308 69L309 70L308 69z"/>
<path style="fill:#377a9d; stroke:none;" d="M348 69L349 70L348 69z"/>
<path style="fill:#71bedc; stroke:none;" d="M101 70L102 71L101 70z"/>
<path style="fill:#377a9d; stroke:none;" d="M109 70L110 71L109 70z"/>
<path style="fill:#225e76; stroke:none;" d="M111.667 70.3333L112.333 70.6667L111.667 70.3333M123 70L124 71L123 70M127.333 70.6667L127.667 71.3333L127.333 70.6667z"/>
<path style="fill:#71bedc; stroke:none;" d="M128 70L129 71L128 70M159 70L160 71L159 70z"/>
<path style="fill:#377a9d; stroke:none;" d="M160 70L161 71L160 70z"/>
<path style="fill:#225e76; stroke:none;" d="M161 70L162 71L161 70M173 70L174 71L173 70z"/>
<path style="fill:#71bedc; stroke:none;" d="M174 70L175 71L174 70z"/>
<path style="fill:#377a9d; stroke:none;" d="M205 70L206 71L205 70M216 70L217 71L216 70z"/>
<path style="fill:#71bedc; stroke:none;" d="M217 70L218 71L217 70z"/>
<path style="fill:#377a9d; stroke:none;" d="M247 70L248 71L247 70z"/>
<path style="fill:#225e76; stroke:none;" d="M248 70L249 71L248 70z"/>
<path style="fill:#377a9d; stroke:none;" d="M262.667 70.3333L263.333 70.6667L262.667 70.3333M284 70L285 71L284 70z"/>
<path style="fill:#225e76; stroke:none;" d="M285 70L285 71L298 71L285 70z"/>
<path style="fill:#377a9d; stroke:none;" d="M298 70L299 71L298 70M309 70L309 71L323 71L309 70z"/>
<path style="fill:#225e76; stroke:none;" d="M323 70L323 71L348 71L323 70z"/>
<path style="fill:#71bedc; stroke:none;" d="M348 70L349 71L348 70z"/>
<path style="fill:#225e76; stroke:none;" d="M356 70L356 71L370 71L356 70z"/>
<path style="fill:#377a9d; stroke:none;" d="M370 70L371 71L370 70z"/>
<path style="fill:#225e76; stroke:none;" d="M398 70L398 71L412 71L398 70z"/>
<path style="fill:#377a9d; stroke:none;" d="M412 70L413 71L412 70z"/>
<path style="fill:#225e76; stroke:none;" d="M22 71L23 72L22 71M33 71L34 72L33 71M37 71L38 72L37 71M57.6667 71.3333L58.3333 71.6667L57.6667 71.3333M88.3333 71.6667L88.6667 72.3333L88.3333 71.6667M108 71L109 72L108 71M113 71L119 76L115 74L114 73L115 71L113 71z"/>
<path style="fill:#71bedc; stroke:none;" d="M162.667 71.3333L163.333 71.6667L162.667 71.3333z"/>
<path style="fill:#377a9d; stroke:none;" d="M164 71L164 72L171 72L164 71z"/>
<path style="fill:#71bedc; stroke:none;" d="M167 72L167 73L173 72L167 72M306 79L314 77L314 74L320 72C313.416 69.2382 308.67 73.0295 306 79M347 72C344.199 70.8248 336.172 69.5007 334.122 72.6026C332.359 75.2688 335.083 78.8612 338.055 77.8387C341.232 76.7456 344.068 73.6927 347 72z"/>
<path style="fill:#225e76; stroke:none;" d="M13 72L14 73L13 72M80 72L81 73L80 72M93 72L92 74L93 72z"/>
<path style="fill:#377a9d; stroke:none;" d="M106 72L107 73L106 72z"/>
<path style="fill:#225e76; stroke:none;" d="M106 74L106 75L111 75L111 74L109 74L109 73L112 73L106 74M122 72L120 73L120 74L122 72z"/>
<path style="fill:#377a9d; stroke:none;" d="M126 72L127 73L126 72z"/>
<path style="fill:#e6f1f5; stroke:none;" d="M316 72L317 73L316 72z"/>
<path style="fill:#225e76; stroke:none;" d="M84.6667 73.3333L85.3333 73.6667L84.6667 73.3333z"/>
<path style="fill:#71bedc; stroke:none;" d="M93 73L94 74L93 73M104 73L105 74L104 73z"/>
<path style="fill:#225e76; stroke:none;" d="M105 73L106 74L105 73M124 73L121 75L121 76L125 74L124 73z"/>
<path style="fill:#377a9d; stroke:none;" d="M125 73L126 74L125 73z"/>
<path style="fill:#225e76; stroke:none;" d="M66 74L66 76L70 76L70 74L66 74M79 74L80 75L79 74M87 74L88 75L87 74z"/>
<path style="fill:#71bedc; stroke:none;" d="M92 74L93 75L92 74M102 74L101 76L102 74z"/>
<path style="fill:#377a9d; stroke:none;" d="M103 74L104 75L103 74z"/>
<path style="fill:#71bedc; stroke:none;" d="M124 74L125 75L124 74z"/>
<path style="fill:#e6f1f5; stroke:none;" d="M205 74L206 75L205 74M239 74L240 75L239 74z"/>
<path style="fill:#225e76; stroke:none;" d="M60 75L61 76L60 75M72 75L73 76L72 75M82 77L86 76L82 77z"/>
<path style="fill:#377a9d; stroke:none;" d="M90 75L91 76L90 75z"/>
<path style="fill:#71bedc; stroke:none;" d="M91 75L92 76L91 75z"/>
<path style="fill:#225e76; stroke:none;" d="M102 75L103 76L102 75z"/>
<path style="fill:#71bedc; stroke:none;" d="M122 75L123 76L122 75M140 75L140 81L141 81L140 75M163 75L164 76L163 75M213 75L214 76L213 75z"/>
<path style="fill:#377a9d; stroke:none;" d="M238 75L239 76L238 75z"/>
<path style="fill:#71bedc; stroke:none;" d="M288 75L289 76L288 75z"/>
<path style="fill:#377a9d; stroke:none;" d="M338 75L339 76L338 75z"/>
<path style="fill:#71bedc; stroke:none;" d="M363 75L364 76L363 75M388 75L389 76L388 75M413 75L414 76L413 75z"/>
<path style="fill:#377a9d; stroke:none;" d="M84.6667 76.3333L85.3333 76.6667L84.6667 76.3333z"/>
<path style="fill:#71bedc; stroke:none;" d="M86 76L86 77L89 77L86 76M99 76L100 77L99 76z"/>
<path style="fill:#225e76; stroke:none;" d="M100 76L101 77L100 76M116 76L117 77L116 76z"/>
<path style="fill:#377a9d; stroke:none;" d="M120 76L121 77L120 76z"/>
<path style="fill:#e6f1f5; stroke:none;" d="M240.667 76.3333L241.333 76.6667L240.667 76.3333z"/>
<path style="fill:#225e76; stroke:none;" d="M61 77L62 78L61 77M65.6667 77.3333L66.3333 77.6667L65.6667 77.3333M70 77L70 78L73 78L70 77z"/>
<path style="fill:#377a9d; stroke:none;" d="M73.6667 77.3333L74.3333 77.6667L73.6667 77.3333z"/>
<path style="fill:#71bedc; stroke:none;" d="M75 77L75 78L79 78L75 77M97 77L98 78L97 77z"/>
<path style="fill:#225e76; stroke:none;" d="M98 77L99 78L98 77M103 77L104 78L103 77M105 78L105 79L107 82L113 80L111 77L105 78M113.667 77.3333L114.333 77.6667L113.667 77.3333M117 77L116 79L117 77z"/>
<path style="fill:#377a9d; stroke:none;" d="M118 77L119 78L118 77z"/>
<path style="fill:#71bedc; stroke:none;" d="M119 77L120 78L119 77M142 77L142 94L165 98C166.739 92.5055 166.187 90.1604 164 85L167 86L167 85L165 80L142 77z"/>
<path style="fill:#225e76; stroke:none;" d="M12 78L13 79L12 78z"/>
<path style="fill:#377a9d; stroke:none;" d="M62 78L62 79L65 79L62 78z"/>
<path style="fill:#71bedc; stroke:none;" d="M65 78L65 79L68 79L65 78M94 78L95 79L94 78z"/>
<path style="fill:#377a9d; stroke:none;" d="M95 78L96 79L95 78z"/>
<path style="fill:#225e76; stroke:none;" d="M96 78L97 79L96 78M101 78L102 79L101 78z"/>
<path style="fill:#71bedc; stroke:none;" d="M117 78L118 79L117 78M311 85L312 85L312 82L323 79L323 86L326 85L325 78C319.883 78.4496 312.759 79.6437 311 85z"/>
<path style="fill:#225e76; stroke:none;" d="M61 79L62 82L61 79z"/>
<path style="fill:#71bedc; stroke:none;" d="M88.6667 79.3333L89.3333 79.6667L88.6667 79.3333z"/>
<path style="fill:#377a9d; stroke:none;" d="M90 79L91 80L90 79z"/>
<path style="fill:#225e76; stroke:none;" d="M91 79L92 80L91 79M97 79L97 80L100 80L97 79M103 79L104 80L103 79z"/>
<path style="fill:#09354d; stroke:none;" d="M110 79L111 80L110 79z"/>
<path style="fill:#377a9d; stroke:none;" d="M115 79L116 80L115 79z"/>
<path style="fill:#71bedc; stroke:none;" d="M166 79L166 80L169 80L166 79z"/>
<path style="fill:#377a9d; stroke:none;" d="M201.667 79.3333L202.333 79.6667L201.667 79.3333z"/>
<path style="fill:#71bedc; stroke:none;" d="M203 79L200 84L201 84L203 82L204 89L201 89L198 84L199 89L178 86L174 98L188 101L189 101L206 99L203 79M206 79L207 80L206 79z"/>
<path style="fill:#377a9d; stroke:none;" d="M240.667 79.3333L241.333 79.6667L240.667 79.3333z"/>
<path style="fill:#71bedc; stroke:none;" d="M248 79L249 80L248 79z"/>
<path style="fill:#377a9d; stroke:none;" d="M249 79L250 80L249 79z"/>
<path style="fill:#71bedc; stroke:none;" d="M278 79L278 80L281 80L278 79M289 79L289 80L295 82C295.542 78.7145 291.575 79.0421 289 79z"/>
<path style="fill:#377a9d; stroke:none;" d="M322 79L323 80L322 79z"/>
<path style="fill:#225e76; stroke:none;" d="M11.3333 80.6667L11.6667 81.3333L11.3333 80.6667M14 80L15 81L14 80M17 80L16 82L17 80M25 80L26 81L25 80z"/>
<path style="fill:#71bedc; stroke:none;" d="M80.6667 80.3333L81.3333 80.6667L80.6667 80.3333z"/>
<path style="fill:#377a9d; stroke:none;" d="M82 80L82 81L85 81L82 80z"/>
<path style="fill:#225e76; stroke:none;" d="M85.6667 80.3333L86.3333 80.6667L85.6667 80.3333M94 80L95 81L94 80z"/>
<path style="fill:#09354d; stroke:none;" d="M107.667 80.3333L108.333 80.6667L107.667 80.3333z"/>
<path style="fill:#377a9d; stroke:none;" d="M113 80L114 81L113 80z"/>
<path style="fill:#09354d; stroke:none;" d="M164 81L168 84L164 86L171 87L166 81L170 82L164 81z"/>
<path style="fill:#377a9d; stroke:none;" d="M170 80L171 81L170 80z"/>
<path style="fill:#09354d; stroke:none;" d="M201.667 80.3333L202.333 80.6667L201.667 80.3333z"/>
<path style="fill:#377a9d; stroke:none;" d="M205 80L206 81L205 80z"/>
<path style="fill:#09354d; stroke:none;" d="M206 80C205.428 83.4889 205.064 87.1565 209 88L209 87L209 83L209 82L206 80z"/>
<path style="fill:#225e76; stroke:none;" d="M207.333 80.6667L207.667 81.3333L207.333 80.6667z"/>
<path style="fill:#377a9d; stroke:none;" d="M220 80L221 81L220 80z"/>
<path style="fill:#09354d; stroke:none;" d="M221 80L221 88L222 88L221 80z"/>
<path style="fill:#225e76; stroke:none;" d="M222 80L223 81L222 80z"/>
<path style="fill:#09354d; stroke:none;" d="M240.667 80.3333L241.333 80.6667L240.667 80.3333M248 80L248 83L247 83C242.766 82.3734 243.337 86.9696 247 88L246 83L247 83L251 88L250 80L248 80z"/>
<path style="fill:#71bedc; stroke:none;" d="M250 80L252 86L250 80z"/>
<path style="fill:#377a9d; stroke:none;" d="M268 80L266 84L268 80z"/>
<path style="fill:#09354d; stroke:none;" d="M269 80C268.223 83.5557 267.943 87.1351 272 88L272 83L269 80z"/>
<path style="fill:#225e76; stroke:none;" d="M270.333 80.6667L270.667 81.3333L270.333 80.6667z"/>
<path style="fill:#09354d; stroke:none;" d="M277 80L277 88L284 88L284 84L281 85L282 81L277 80z"/>
<path style="fill:#225e76; stroke:none;" d="M281 80L282 81L281 80M289 80L290 81L289 80z"/>
<path style="fill:#09354d; stroke:none;" d="M290 80L290 88L295 88L295 87L291 87L291 85L295 85L295 83L291 83L291 82L295 81L290 80z"/>
<path style="fill:#225e76; stroke:none;" d="M320 80L321 81L320 80z"/>
<path style="fill:#09354d; stroke:none;" d="M321 80C319.92 83.4278 320.02 87.1516 324 88L324 87L324 83L321 80z"/>
<path style="fill:#225e76; stroke:none;" d="M322.333 80.6667L322.667 81.3333L322.333 80.6667z"/>
<path style="fill:#71bedc; stroke:none;" d="M408.333 80.6667L408.667 81.3333L408.333 80.6667z"/>
<path style="fill:#09354d; stroke:none;" d="M409 80C408.428 83.4889 408.064 87.1565 412 88L412 87L411 80L409 80z"/>
<path style="fill:#71bedc; stroke:none;" d="M411.333 80.6667L411.667 81.3333L411.333 80.6667z"/>
<path style="fill:#225e76; stroke:none;" d="M20 81L20 82L24 82L20 81M27 81L27 82L31 83L31 82L27 81z"/>
<path style="fill:#71bedc; stroke:none;" d="M62.6667 81.3333L63.3333 81.6667L62.6667 81.3333M65 81L65 82L69 82L65 81z"/>
<path style="fill:#377a9d; stroke:none;" d="M69 81L69 82L75 82L69 81z"/>
<path style="fill:#225e76; stroke:none;" d="M74 83L77 81L74 83M83 81L84 82L83 81M97 81L98 82L97 81M101 81L102 82L101 81z"/>
<path style="fill:#377a9d; stroke:none;" d="M111 81L112 82L111 81z"/>
<path style="fill:#71bedc; stroke:none;" d="M112 81L113 82L112 81z"/>
<path style="fill:#377a9d; stroke:none;" d="M140 81L140 92L141 92L140 81z"/>
<path style="fill:#225e76; stroke:none;" d="M166 83L169 82L166 83z"/>
<path style="fill:#71bedc; stroke:none;" d="M183 81L184 82L183 81M193 81L194 82L193 81M196 81L197 82L196 81z"/>
<path style="fill:#225e76; stroke:none;" d="M205 81L206 82L205 81z"/>
<path style="fill:#71bedc; stroke:none;" d="M215 81L217 83L215 81z"/>
<path style="fill:#225e76; stroke:none;" d="M220 81L221 82L220 81z"/>
<path style="fill:#377a9d; stroke:none;" d="M222 81L222 85L223 85L222 81z"/>
<path style="fill:#71bedc; stroke:none;" d="M225 81L226 82L225 81M228 81L229 82L228 81M240.667 81.3333L241.333 81.6667L240.667 81.3333M255 81L256 82L255 81M260.667 81.3333L261.333 81.6667L260.667 81.3333M263 81L263 82L267 83L267 82L263 81M267 81L268 82L267 81M271 81L272 82L271 81M276.333 81.6667L276.667 82.3333L276.333 81.6667M279 81L280 82L279 81z"/>
<path style="fill:#377a9d; stroke:none;" d="M289.333 81.6667L289.667 82.3333L289.333 81.6667M292 81L293 82L292 81z"/>
<path style="fill:#225e76; stroke:none;" d="M293 81L294 82L293 81z"/>
<path style="fill:#377a9d; stroke:none;" d="M294 81L295 82L294 81z"/>
<path style="fill:#71bedc; stroke:none;" d="M302 81L303 82L302 81M306.667 81.3333L307.333 81.6667L306.667 81.3333z"/>
<path style="fill:#377a9d; stroke:none;" d="M316 81L317 82L316 81M319 81L318 88L319 88L319 81M323 81L324 82L323 81z"/>
<path style="fill:#71bedc; stroke:none;" d="M329 81L330 82L329 81z"/>
<path style="fill:#377a9d; stroke:none;" d="M343 81L344 82L343 81M349 81L350 82L349 81z"/>
<path style="fill:#71bedc; stroke:none;" d="M370 81L371 82L370 81M401 81L402 82L401 81z"/>
<path style="fill:#377a9d; stroke:none;" d="M11 82L11 85L12 85L11 82z"/>
<path style="fill:#225e76; stroke:none;" d="M18 82L19 83L18 82M25 82L26 83L25 82M54 82L55 83L54 82M58 82L60 85L58 82M63 82L64 83L63 82M103 82L104 83L103 82M109 82L110 83L109 82z"/>
<path style="fill:#71bedc; stroke:none;" d="M110 82L111 83L110 82z"/>
<path style="fill:#377a9d; stroke:none;" d="M167 82L168 83L167 82z"/>
<path style="fill:#71bedc; stroke:none;" d="M168.667 82.3333L169.333 82.6667L168.667 82.3333M172 82L173 83L172 82z"/>
<path style="fill:#225e76; stroke:none;" d="M173 82L172 84L173 82z"/>
<path style="fill:#09354d; stroke:none;" d="M178 88L178 87L174 87L174 86L179 86C175.323 79.4144 169.262 87.3186 178 88z"/>
<path style="fill:#377a9d; stroke:none;" d="M177 82L178 83L177 82z"/>
<path style="fill:#225e76; stroke:none;" d="M181 82L180 84L181 82z"/>
<path style="fill:#09354d; stroke:none;" d="M185 88L185 87L182 87L183 83L186 84C181.436 80.9796 178.763 86.9558 185 88z"/>
<path style="fill:#71bedc; stroke:none;" d="M185 82L186 83L185 82z"/>
<path style="fill:#225e76; stroke:none;" d="M187 82L188 83L187 82z"/>
<path style="fill:#09354d; stroke:none;" d="M188.333 82.6667L188.667 83.3333L188.333 82.6667z"/>
<path style="fill:#377a9d; stroke:none;" d="M189.333 82.6667L189.667 83.3333L189.333 82.6667z"/>
<path style="fill:#71bedc; stroke:none;" d="M191 82L190 86L191 86L191 82z"/>
<path style="fill:#09354d; stroke:none;" d="M192 82L192 87L188 85C188.729 88.4028 190.806 87.9865 194 88L194 82L192 82M196 82L196 88L198 88L200 82L196 82z"/>
<path style="fill:#71bedc; stroke:none;" d="M198 82L199 83L198 82z"/>
<path style="fill:#09354d; stroke:none;" d="M201 82L201 88L203 88L203 82L201 82z"/>
<path style="fill:#377a9d; stroke:none;" d="M204 82L205 83L204 82z"/>
<path style="fill:#71bedc; stroke:none;" d="M209 82L210 83L209 82z"/>
<path style="fill:#09354d; stroke:none;" d="M210 82L211 91L216 82L215 82L214 87L213 87L210 82z"/>
<path style="fill:#225e76; stroke:none;" d="M214 82L215 83L214 82z"/>
<path style="fill:#377a9d; stroke:none;" d="M220 82L220 85L221 85L220 82z"/>
<path style="fill:#09354d; stroke:none;" d="M224 82L224 88L226 84L229 84L231 88L230 82L224 82z"/>
<path style="fill:#377a9d; stroke:none;" d="M226 82L227 83L226 82z"/>
<path style="fill:#225e76; stroke:none;" d="M227 82L228 83L227 82z"/>
<path style="fill:#71bedc; stroke:none;" d="M230 82L231 83L230 82z"/>
<path style="fill:#225e76; stroke:none;" d="M233 82L232 84L233 82z"/>
<path style="fill:#09354d; stroke:none;" d="M238 88L238 87L234 87L235 83L238 84C233.235 80.8467 230.818 87.44 238 88z"/>
<path style="fill:#377a9d; stroke:none;" d="M237 82L238 83L237 82z"/>
<path style="fill:#09354d; stroke:none;" d="M240 82L240 88L242 88L242 82L240 82z"/>
<path style="fill:#225e76; stroke:none;" d="M244 82L245 83L244 82z"/>
<path style="fill:#377a9d; stroke:none;" d="M247 82L248 83L247 82z"/>
<path style="fill:#225e76; stroke:none;" d="M253 82L255 84L253 82z"/>
<path style="fill:#09354d; stroke:none;" d="M254 82L254 83L257 84L257 85L252 83C252.652 86.9108 254.136 87.6998 258 88L258 87L254 87L254 86L259 86L254 82z"/>
<path style="fill:#377a9d; stroke:none;" d="M257 82L258 83L257 82z"/>
<path style="fill:#09354d; stroke:none;" d="M260 82L260 88L262 88L262 82L260 82z"/>
<path style="fill:#377a9d; stroke:none;" d="M262 82L263 83L262 82z"/>
<path style="fill:#09354d; stroke:none;" d="M263 82L265 88L266 88L263 82z"/>
<path style="fill:#225e76; stroke:none;" d="M265 82L266 83L265 82z"/>
<path style="fill:#71bedc; stroke:none;" d="M272.333 82.6667L272.667 83.3333L272.333 82.6667z"/>
<path style="fill:#225e76; stroke:none;" d="M277.333 82.6667L277.667 83.3333L277.333 82.6667M281 82L282 83L281 82z"/>
<path style="fill:#377a9d; stroke:none;" d="M291 82L292 83L291 82M296 82L297 83L296 82z"/>
<path style="fill:#09354d; stroke:none;" d="M297 82L298 88L303 82L300 87L299 87L297 82z"/>
<path style="fill:#225e76; stroke:none;" d="M298 82L299 83L298 82z"/>
<path style="fill:#71bedc; stroke:none;" d="M304 82L305 83L304 82z"/>
<path style="fill:#09354d; stroke:none;" d="M310 88L310 87L306 87L306 86L310 86C307.634 78.8817 300.607 87.2681 310 88z"/>
<path style="fill:#377a9d; stroke:none;" d="M309 82L310 83L309 82z"/>
<path style="fill:#09354d; stroke:none;" d="M312 82L312 88L314 88L314 84L316 84L316 88L318 88L318 82L312 82z"/>
<path style="fill:#225e76; stroke:none;" d="M313.667 82.3333L314.333 82.6667L313.667 82.3333M319 82L320 83L319 82z"/>
<path style="fill:#09354d; stroke:none;" d="M328 82L328 88L330 88L330 84L333 84L333 88L334 88L337 84L337 88L339 88L338 82L328 82z"/>
<path style="fill:#377a9d; stroke:none;" d="M330 82L331 83L330 82z"/>
<path style="fill:#71bedc; stroke:none;" d="M334 82L335 83L334 82z"/>
<path style="fill:#225e76; stroke:none;" d="M335 82L336 83L335 82z"/>
<path style="fill:#377a9d; stroke:none;" d="M338 82L339 83L338 82M340 82L341 85L344 84L344 83L340 82z"/>
<path style="fill:#09354d; stroke:none;" d="M341 82L341 83L343 85L340 88L347 88C345.81 84.3235 344.923 82.6518 341 82z"/>
<path style="fill:#225e76; stroke:none;" d="M345 82L346 83L345 82z"/>
<path style="fill:#377a9d; stroke:none;" d="M346.333 82.6667L346.667 83.3333L346.333 82.6667z"/>
<path style="fill:#09354d; stroke:none;" d="M348 82L348 88L350 88L350 84L353 84L353 88L355 88L354 82L348 82z"/>
<path style="fill:#225e76; stroke:none;" d="M350.667 82.3333L351.333 82.6667L350.667 82.3333z"/>
<path style="fill:#377a9d; stroke:none;" d="M356 82L360 86L360 83L359 83L356 82z"/>
<path style="fill:#09354d; stroke:none;" d="M357 82L357 83L360 83L360 87L357 85L356 88L363 88C361.81 84.3235 360.923 82.6518 357 82z"/>
<path style="fill:#377a9d; stroke:none;" d="M361 82L362 83L361 82z"/>
<path style="fill:#71bedc; stroke:none;" d="M364 82L365 83L364 82z"/>
<path style="fill:#09354d; stroke:none;" d="M364 83L364 87L369 88L369 90L364 90L364 91C369.976 90.5441 370.934 87.5609 371 82L364 83z"/>
<path style="fill:#377a9d; stroke:none;" d="M368 82L369 83L368 82z"/>
<path style="fill:#225e76; stroke:none;" d="M373 82L374 85L375 85L373 82z"/>
<path style="fill:#09354d; stroke:none;" d="M374 82L374 83L377 85L373 83C372.599 86.9394 374.243 87.701 378 88L378 87L374 87L374 86L379 86L374 82z"/>
<path style="fill:#225e76; stroke:none;" d="M377 82L378 83L377 82M380.333 82.6667L380.667 83.3333L380.333 82.6667z"/>
<path style="fill:#09354d; stroke:none;" d="M381 82L381 88L382 88L382 84L385 84L385 88L387 88L387 84L389 84L389 88L391 88L390 82L381 82z"/>
<path style="fill:#225e76; stroke:none;" d="M382.667 82.3333L383.333 82.6667L382.667 82.3333z"/>
<path style="fill:#377a9d; stroke:none;" d="M386 82L387 83L386 82z"/>
<path style="fill:#225e76; stroke:none;" d="M387 82L388 83L387 82M390 82L391 83L390 82z"/>
<path style="fill:#377a9d; stroke:none;" d="M393 82L392 84L393 82z"/>
<path style="fill:#09354d; stroke:none;" d="M394 82C392.166 86.2023 393.606 87.6493 398 88L398 87L394 87L394 86L399 86L396 82L394 85L394 82z"/>
<path style="fill:#225e76; stroke:none;" d="M395 82L397 84L395 82M397 82L398 83L397 82z"/>
<path style="fill:#377a9d; stroke:none;" d="M400 82L400 85L401 85L400 82z"/>
<path style="fill:#09354d; stroke:none;" d="M401 82L401 88L402 88L402 84L405 84L405 88L407 88C406.657 83.5885 405.291 82.4855 401 82z"/>
<path style="fill:#377a9d; stroke:none;" d="M402 82L403 83L402 82M406 82L407 83L406 82z"/>
<path style="fill:#71bedc; stroke:none;" d="M412 82L412 87L413 87L412 82z"/>
<path style="fill:#225e76; stroke:none;" d="M15 83L16 87L17 87L18 85L15 83M21 83L21 84L24 84L21 83M61 83L62 84L61 83M61 85L61 86L69 84L61 85M80 83L81 84L80 83z"/>
<path style="fill:#377a9d; stroke:none;" d="M108 83L109 84L108 83z"/>
<path style="fill:#225e76; stroke:none;" d="M164 83L165 84L164 83z"/>
<path style="fill:#377a9d; stroke:none;" d="M169 83L170 84L169 83M174 83L174 85L176 83L174 83z"/>
<path style="fill:#225e76; stroke:none;" d="M176 83L176 85L178 85L176 83z"/>
<path style="fill:#377a9d; stroke:none;" d="M178 83L179 84L178 83z"/>
<path style="fill:#225e76; stroke:none;" d="M183 83L184 84L183 83z"/>
<path style="fill:#71bedc; stroke:none;" d="M186 83L182 84L182 86L187 87L186 83z"/>
<path style="fill:#377a9d; stroke:none;" d="M187 83L188 84L187 83z"/>
<path style="fill:#71bedc; stroke:none;" d="M195 83L195 87L196 87L195 83z"/>
<path style="fill:#225e76; stroke:none;" d="M205 83L208 89L208 88L205 83M207 83L207 85L209 83L207 83z"/>
<path style="fill:#71bedc; stroke:none;" d="M212 83L213 84L212 83z"/>
<path style="fill:#225e76; stroke:none;" d="M235 83L236 84L235 83z"/>
<path style="fill:#71bedc; stroke:none;" d="M238 83L239 86L236 84L236 86L235 86L235 84L234 84L235 87L239 87L239 88L229 89L226 86L227 89L224 86L223 86L223 89L215 86L215 87L216 99L246 97L242 86L240 89L238 83z"/>
<path style="fill:#377a9d; stroke:none;" d="M243 83L244 84L243 83z"/>
<path style="fill:#225e76; stroke:none;" d="M246 83L245 85L246 83z"/>
<path style="fill:#377a9d; stroke:none;" d="M254 85L257 85L256 83L254 85M258 83L259 84L258 83z"/>
<path style="fill:#71bedc; stroke:none;" d="M259 83L255 86L255 87L258 88L253 88C255.545 97.2966 259.43 93.3951 266 90L264 84L263 84L262 89L260 89L259 83z"/>
<path style="fill:#225e76; stroke:none;" d="M262 83L263 84L262 83z"/>
<path style="fill:#71bedc; stroke:none;" d="M267 83L267 87L268 87L267 83z"/>
<path style="fill:#377a9d; stroke:none;" d="M271 83L272 84L271 83z"/>
<path style="fill:#71bedc; stroke:none;" d="M281 83L282 84L281 83z"/>
<path style="fill:#377a9d; stroke:none;" d="M282.667 83.3333L283.333 83.6667L282.667 83.3333z"/>
<path style="fill:#225e76; stroke:none;" d="M289 83L290 84L289 83z"/>
<path style="fill:#71bedc; stroke:none;" d="M296 83L297 84L296 83M300 83L301 84L300 83z"/>
<path style="fill:#225e76; stroke:none;" d="M302 83L303 84L302 83z"/>
<path style="fill:#377a9d; stroke:none;" d="M306 83L306 85L308 85L308 83L306 83M310 83L311 84L310 83z"/>
<path style="fill:#225e76; stroke:none;" d="M323 83L324 84L323 83M341 83L342 84L341 83M354 83L355 84L354 83M357 83L358 84L357 83z"/>
<path style="fill:#71bedc; stroke:none;" d="M358 83L359 84L358 83M362 83L364 86L362 83z"/>
<path style="fill:#225e76; stroke:none;" d="M366.667 83.3333L367.333 83.6667L366.667 83.3333z"/>
<path style="fill:#377a9d; stroke:none;" d="M372 83L373 84L372 83z"/>
<path style="fill:#71bedc; stroke:none;" d="M375.333 83.6667L375.667 84.3333L375.333 83.6667z"/>
<path style="fill:#225e76; stroke:none;" d="M376 83L377 84L376 83M378 83L379 84L378 83z"/>
<path style="fill:#377a9d; stroke:none;" d="M394 85L397 85L396 83L394 85z"/>
<path style="fill:#225e76; stroke:none;" d="M408 83L409 84L408 83M411 83L412 84L411 83M19 84L18 91L19 91L23 86L23 85L19 84M28 84L29 85L28 84M74 84L74 85L78 85L74 84M83.6667 84.3333L84.3333 84.6667L83.6667 84.3333M98 84L97 88L98 88L98 84M103 84L102 86L103 84z"/>
<path style="fill:#377a9d; stroke:none;" d="M106 84L107 85L106 84z"/>
<path style="fill:#71bedc; stroke:none;" d="M107 84L108 85L107 84z"/>
<path style="fill:#225e76; stroke:none;" d="M165 84L166 85L165 84M167 84L168 85L167 84M170 84L171 85L170 84z"/>
<path style="fill:#71bedc; stroke:none;" d="M171 84L172 85L171 84M175 84L176 85L175 84z"/>
<path style="fill:#377a9d; stroke:none;" d="M179 84L179 87L180 87L179 84z"/>
<path style="fill:#e6f1f5; stroke:none;" d="M186 84L187 85L186 84z"/>
<path style="fill:#225e76; stroke:none;" d="M187 87L188 87L190 86C188.583 83.4766 187.517 84.5416 187 87z"/>
<path style="fill:#e6f1f5; stroke:none;" d="M199.667 84.3333L200.333 84.6667L199.667 84.3333M204 84L205 85L204 84z"/>
<path style="fill:#71bedc; stroke:none;" d="M210 84L211 85L210 84z"/>
<path style="fill:#225e76; stroke:none;" d="M212 84L213 85L212 84M215 84L216 85L215 84M226 84L227 85L226 84z"/>
<path style="fill:#e6f1f5; stroke:none;" d="M227.333 84.6667L227.667 85.3333L227.333 84.6667z"/>
<path style="fill:#377a9d; stroke:none;" d="M228 84L228 88L229 88L228 84z"/>
<path style="fill:#225e76; stroke:none;" d="M230 84L231 85L230 84z"/>
<path style="fill:#71bedc; stroke:none;" d="M231 84L231 87L232 87L231 84z"/>
<path style="fill:#e6f1f5; stroke:none;" d="M235.333 84.6667L235.667 85.3333L235.333 84.6667M237 84L237 86L239 86L239 84L237 84M246 84L246 86L248 86L248 84L246 84z"/>
<path style="fill:#377a9d; stroke:none;" d="M262 84L263 85L262 84M264 84L265 85L264 84z"/>
<path style="fill:#225e76; stroke:none;" d="M266.333 84.6667L266.667 85.3333L266.333 84.6667z"/>
<path style="fill:#377a9d; stroke:none;" d="M268 84L269 89L270 89L268 84z"/>
<path style="fill:#225e76; stroke:none;" d="M270.333 84.6667L270.667 85.3333L270.333 84.6667z"/>
<path style="fill:#71bedc; stroke:none;" d="M276 84L277 85L276 84z"/>
<path style="fill:#377a9d; stroke:none;" d="M281 84L282 85L281 84M289.333 84.6667L289.667 85.3333L289.333 84.6667M300 84L301 85L300 84z"/>
<path style="fill:#71bedc; stroke:none;" d="M302.667 84.3333L303.333 84.6667L302.667 84.3333z"/>
<path style="fill:#225e76; stroke:none;" d="M310.333 84.6667L310.667 85.3333L310.333 84.6667z"/>
<path style="fill:#377a9d; stroke:none;" d="M314 84L314 88L315 88L314 84z"/>
<path style="fill:#71bedc; stroke:none;" d="M315 84L314 89L312 89L311 86L310 86C307.546 88.2971 306.454 88.2971 304 86C297.239 89.8023 294.222 91.8925 296 100L317 90L315 84M319 84L320 89L321 89L319 84z"/>
<path style="fill:#225e76; stroke:none;" d="M320 84L320 87L321 87L320 84M322 84L322 87L323 87L322 84z"/>
<path style="fill:#377a9d; stroke:none;" d="M330.333 84.6667L330.667 85.3333L330.333 84.6667M332 84L333 85L332 84z"/>
<path style="fill:#71bedc; stroke:none;" d="M336 84L336 88L337 88L336 84z"/>
<path style="fill:#225e76; stroke:none;" d="M342 84L345 87L342 84M346 84L346 87L347 87L346 84M350 84L351 85L350 84z"/>
<path style="fill:#377a9d; stroke:none;" d="M352 84L353 85L352 84z"/>
<path style="fill:#225e76; stroke:none;" d="M364 84L365 85L364 84z"/>
<path style="fill:#71bedc; stroke:none;" d="M366 84L367 85L366 84z"/>
<path style="fill:#e6f1f5; stroke:none;" d="M367 84L366 86L368 86L367 84z"/>
<path style="fill:#377a9d; stroke:none;" d="M368 84L369 85L368 84M376 84L377 85L376 84z"/>
<path style="fill:#71bedc; stroke:none;" d="M379.333 84.6667L379.667 85.3333L379.333 84.6667z"/>
<path style="fill:#377a9d; stroke:none;" d="M380 84L380 88L381 88L380 84z"/>
<path style="fill:#225e76; stroke:none;" d="M382 84L383 85L382 84z"/>
<path style="fill:#71bedc; stroke:none;" d="M384 84L384 89L385 89L384 84M388 84L388 87L389 87L388 84M391.333 84.6667L391.667 85.3333L391.333 84.6667M399.333 84.6667L399.667 85.3333L399.333 84.6667z"/>
<path style="fill:#225e76; stroke:none;" d="M402.333 84.6667L402.667 85.3333L402.333 84.6667z"/>
<path style="fill:#71bedc; stroke:none;" d="M404 84L405 85L404 84M408 84L407 88L408 88L408 84M11 85L11 89L12 89L11 85z"/>
<path style="fill:#225e76; stroke:none;" d="M26 85L26 87L28 87L26 85M29 85L28 89L31 85L29 85M69 85L69 86L72 86L69 85M104 85L105 86L104 85z"/>
<path style="fill:#71bedc; stroke:none;" d="M105 85L106 86L105 85z"/>
<path style="fill:#377a9d; stroke:none;" d="M164 85L165 86L164 85M167.333 85.6667L167.667 86.3333L167.333 85.6667M191 85L190 87L191 85M194 85L194 89L195 89L196 89L194 85M203 85L204 86L203 85M207 85L209 87L207 85z"/>
<path style="fill:#71bedc; stroke:none;" d="M213 85L214 86L213 85z"/>
<path style="fill:#377a9d; stroke:none;" d="M215 85L216 86L215 85z"/>
<path style="fill:#225e76; stroke:none;" d="M220 85L221 89L222 89L223 85L222 85L222 88L221 88L220 85M224 85L225 86L224 85z"/>
<path style="fill:#377a9d; stroke:none;" d="M226 85L227 86L226 85M245 85L246 86L245 85z"/>
<path style="fill:#225e76; stroke:none;" d="M264 85L267 88L267 87L264 85M276.333 85.6667L276.667 86.3333L276.333 85.6667z"/>
<path style="fill:#377a9d; stroke:none;" d="M278.667 85.3333L279.333 85.6667L278.667 85.3333z"/>
<path style="fill:#225e76; stroke:none;" d="M283 85L284 86L283 85z"/>
<path style="fill:#377a9d; stroke:none;" d="M291 85L292 86L291 85M297 85L298 86L297 85z"/>
<path style="fill:#71bedc; stroke:none;" d="M299 85L300 86L299 85z"/>
<path style="fill:#225e76; stroke:none;" d="M300 85L301 86L300 85z"/>
<path style="fill:#e6f1f5; stroke:none;" d="M302.333 85.6667L302.667 86.3333L302.333 85.6667z"/>
<path style="fill:#377a9d; stroke:none;" d="M303 85L304 86L303 85z"/>
<path style="fill:#225e76; stroke:none;" d="M305 85L306 86L305 85z"/>
<path style="fill:#377a9d; stroke:none;" d="M311 85L311 88L312 88L311 85z"/>
<path style="fill:#71bedc; stroke:none;" d="M332 85L332 89L333 89L332 85z"/>
<path style="fill:#377a9d; stroke:none;" d="M334.333 85.6667L334.667 86.3333L334.333 85.6667z"/>
<path style="fill:#225e76; stroke:none;" d="M340 85L341 86L340 85z"/>
<path style="fill:#71bedc; stroke:none;" d="M350 85L350 89L351 89L350 85M352 85L352 89L353 89L352 85z"/>
<path style="fill:#225e76; stroke:none;" d="M356 85L357 86L356 85M358 85L359 86L358 85z"/>
<path style="fill:#71bedc; stroke:none;" d="M368 85L367 87L368 85z"/>
<path style="fill:#377a9d; stroke:none;" d="M382 85L382 88L383 88L382 85z"/>
<path style="fill:#225e76; stroke:none;" d="M400.333 85.6667L400.667 86.3333L400.333 85.6667z"/>
<path style="fill:#e6f1f5; stroke:none;" d="M408 85L409 86L408 85z"/>
<path style="fill:#71bedc; stroke:none;" d="M20 86L19 88L20 86z"/>
<path style="fill:#e6f1f5; stroke:none;" d="M21.2778 87.341C18.7283 88.3095 20.1285 92.1233 22.7222 91.2492C25.3146 90.3756 23.7688 86.3948 21.2778 87.341z"/>
<path style="fill:#71bedc; stroke:none;" d="M23 86L25 88L23 86z"/>
<path style="fill:#225e76; stroke:none;" d="M24 86L25 87L24 86M66.6667 86.3333L67.3333 86.6667L66.6667 86.3333M74 86L74 87L79 87L74 86M83.6667 86.3333L84.3333 86.6667L83.6667 86.3333M101 86L99 89L101 86z"/>
<path style="fill:#71bedc; stroke:none;" d="M103 86L104 87L103 86z"/>
<path style="fill:#225e76; stroke:none;" d="M165.667 86.3333L166.333 86.6667L165.667 86.3333z"/>
<path style="fill:#71bedc; stroke:none;" d="M174 86L175 87L174 86z"/>
<path style="fill:#e6f1f5; stroke:none;" d="M175 86L176 87L175 86z"/>
<path style="fill:#71bedc; stroke:none;" d="M176 86L177 87L176 86z"/>
<path style="fill:#377a9d; stroke:none;" d="M177 86L178 87L177 86z"/>
<path style="fill:#225e76; stroke:none;" d="M182 86L183 87L182 86z"/>
<path style="fill:#377a9d; stroke:none;" d="M183 86L184 87L183 86z"/>
<path style="fill:#225e76; stroke:none;" d="M184 86L186 88L184 86z"/>
<path style="fill:#377a9d; stroke:none;" d="M185 86L186 87L185 86z"/>
<path style="fill:#225e76; stroke:none;" d="M191 86L192 87L191 86z"/>
<path style="fill:#377a9d; stroke:none;" d="M198 86L198 89L199 89L198 86z"/>
<path style="fill:#225e76; stroke:none;" d="M203 86L204 87L203 86M207 86L208 87L207 86M211 86L212 87L211 86M213 86L214 87L213 86M234 86L235 87L234 86M236 86L237 87L236 86M243 86L244 87L243 86z"/>
<path style="fill:#71bedc; stroke:none;" d="M246 86L247 87L246 86z"/>
<path style="fill:#377a9d; stroke:none;" d="M247 86L248 87L247 86z"/>
<path style="fill:#225e76; stroke:none;" d="M250 86L251 87L250 86z"/>
<path style="fill:#377a9d; stroke:none;" d="M254 86L255 87L254 86M266 86L267 87L266 86M271 86L272 87L271 86z"/>
<path style="fill:#71bedc; stroke:none;" d="M272 86L272 89L273 89L272 86z"/>
<path style="fill:#225e76; stroke:none;" d="M278 86L279 87L278 86z"/>
<path style="fill:#e6f1f5; stroke:none;" d="M279 86L280 87L279 86z"/>
<path style="fill:#377a9d; stroke:none;" d="M283 86L284 87L283 86z"/>
<path style="fill:#225e76; stroke:none;" d="M289 86L290 87L289 86M291 86L292 87L291 86z"/>
<path style="fill:#71bedc; stroke:none;" d="M292 86L292 87L296 87L292 86M297 86L298 87L297 86z"/>
<path style="fill:#225e76; stroke:none;" d="M299 86L300 87L299 86M301 86L302 87L301 86z"/>
<path style="fill:#377a9d; stroke:none;" d="M306 86L307 87L306 86z"/>
<path style="fill:#71bedc; stroke:none;" d="M307 86L308 87L307 86z"/>
<path style="fill:#377a9d; stroke:none;" d="M308.667 86.3333L309.333 86.6667L308.667 86.3333M323 86L324 87L323 86z"/>
<path style="fill:#71bedc; stroke:none;" d="M330 86L330 89L331 89L330 86z"/>
<path style="fill:#377a9d; stroke:none;" d="M342 86L343 87L342 86z"/>
<path style="fill:#71bedc; stroke:none;" d="M343 86L344 87L343 86z"/>
<path style="fill:#e6f1f5; stroke:none;" d="M347 86L348 87L347 86z"/>
<path style="fill:#71bedc; stroke:none;" d="M355 86L356 87L355 86z"/>
<path style="fill:#e6f1f5; stroke:none;" d="M358.667 86.3333L359.333 86.6667L358.667 86.3333z"/>
<path style="fill:#225e76; stroke:none;" d="M362 86L363 87L362 86z"/>
<path style="fill:#377a9d; stroke:none;" d="M366 86L367 87L366 86z"/>
<path style="fill:#225e76; stroke:none;" d="M368 86L369 87L368 86M372 86L373 87L372 86z"/>
<path style="fill:#377a9d; stroke:none;" d="M374 86L375 87L374 86z"/>
<path style="fill:#e6f1f5; stroke:none;" d="M375.667 86.3333L376.333 86.6667L375.667 86.3333z"/>
<path style="fill:#71bedc; stroke:none;" d="M377 86L378 87L377 86z"/>
<path style="fill:#e6f1f5; stroke:none;" d="M391 86L392 87L391 86z"/>
<path style="fill:#225e76; stroke:none;" d="M392 86L393 87L392 86M394 86L395 87L394 86z"/>
<path style="fill:#e6f1f5; stroke:none;" d="M395.667 86.3333L396.333 86.6667L395.667 86.3333z"/>
<path style="fill:#71bedc; stroke:none;" d="M397.667 86.3333L398.333 86.6667L397.667 86.3333z"/>
<path style="fill:#377a9d; stroke:none;" d="M402 86L403 87L402 86z"/>
<path style="fill:#e6f1f5; stroke:none;" d="M407 86L408 87L407 86z"/>
<path style="fill:#225e76; stroke:none;" d="M410 86L411 87L410 86z"/>
<path style="fill:#377a9d; stroke:none;" d="M411 86L412 87L411 86z"/>
<path style="fill:#225e76; stroke:none;" d="M25 87L26 88L25 87M64 87L65 88L64 87M70.6667 87.3333L71.3333 87.6667L70.6667 87.3333z"/>
<path style="fill:#377a9d; stroke:none;" d="M101 87L102 88L101 87M170 87L171 88L170 87M172 87L173 88L172 87M178 87L179 88L178 87z"/>
<path style="fill:#225e76; stroke:none;" d="M180 87L181 88L180 87z"/>
<path style="fill:#377a9d; stroke:none;" d="M186.667 87.3333L187.333 87.6667L186.667 87.3333z"/>
<path style="fill:#225e76; stroke:none;" d="M194 87L195 88L194 87z"/>
<path style="fill:#377a9d; stroke:none;" d="M203.333 87.6667L203.667 88.3333L203.333 87.6667z"/>
<path style="fill:#71bedc; stroke:none;" d="M209 87L210 88L209 87M211 87L212 88L211 87z"/>
<path style="fill:#377a9d; stroke:none;" d="M226.333 87.6667L226.667 88.3333L226.333 87.6667z"/>
<path style="fill:#e6f1f5; stroke:none;" d="M231 87L232 88L231 87z"/>
<path style="fill:#377a9d; stroke:none;" d="M232 87L233 88L232 87M238 87L239 88L238 87z"/>
<path style="fill:#225e76; stroke:none;" d="M247 87L246 89L247 87z"/>
<path style="fill:#377a9d; stroke:none;" d="M252 87L253 88L252 87z"/>
<path style="fill:#71bedc; stroke:none;" d="M276 87L277 88L276 87M284 87L285 88L284 87z"/>
<path style="fill:#377a9d; stroke:none;" d="M289 87L290 88L289 87M295 87L296 88L295 87M301 87L302 88L301 87z"/>
<path style="fill:#225e76; stroke:none;" d="M304 87L305 88L304 87z"/>
<path style="fill:#377a9d; stroke:none;" d="M320 87L321 88L320 87z"/>
<path style="fill:#71bedc; stroke:none;" d="M324 87L325 88L324 87z"/>
<path style="fill:#225e76; stroke:none;" d="M334 87L335 88L334 87z"/>
<path style="fill:#71bedc; stroke:none;" d="M347 87L348 88L347 87z"/>
<path style="fill:#225e76; stroke:none;" d="M360 87L361 88L360 87M364 87L365 88L364 87z"/>
<path style="fill:#71bedc; stroke:none;" d="M372 87L373 88L372 87z"/>
<path style="fill:#377a9d; stroke:none;" d="M378 87L379 88L378 87z"/>
<path style="fill:#71bedc; stroke:none;" d="M391 87L392 88L391 87z"/>
<path style="fill:#377a9d; stroke:none;" d="M398 87L399 88L398 87M400 87L401 88L400 87z"/>
<path style="fill:#225e76; stroke:none;" d="M402 87L401 89L402 87z"/>
<path style="fill:#71bedc; stroke:none;" d="M404 87L405 88L404 87z"/>
<path style="fill:#225e76; stroke:none;" d="M412 87L411 89L412 87M14 88L16 90L14 88z"/>
<path style="fill:#377a9d; stroke:none;" d="M25 88L26 89L25 88z"/>
<path style="fill:#225e76; stroke:none;" d="M31 88C29.3366 90.387 28.6791 91.9707 31 94L31 88M36 88L34 89L34 90L36 88M84 88L85 89L84 88M92 88L93 89L92 88z"/>
<path style="fill:#71bedc; stroke:none;" d="M100 88L101 89L100 88z"/>
<path style="fill:#377a9d; stroke:none;" d="M165 88L166 89L165 88z"/>
<path style="fill:#225e76; stroke:none;" d="M166.667 88.3333L167.333 88.6667L166.667 88.3333z"/>
<path style="fill:#377a9d; stroke:none;" d="M168 88L169 89L168 88z"/>
<path style="fill:#71bedc; stroke:none;" d="M169 88L170 89L169 88M173 88L174 89L173 88z"/>
<path style="fill:#377a9d; stroke:none;" d="M174 88L174 89L177 89L174 88M181 88L182 89L181 88z"/>
<path style="fill:#225e76; stroke:none;" d="M182.667 88.3333L183.333 88.6667L182.667 88.3333z"/>
<path style="fill:#377a9d; stroke:none;" d="M184.667 88.3333L185.333 88.6667L184.667 88.3333M188 88L189 89L188 88z"/>
<path style="fill:#225e76; stroke:none;" d="M189.667 88.3333L190.333 88.6667L189.667 88.3333z"/>
<path style="fill:#377a9d; stroke:none;" d="M192 88L193 89L192 88z"/>
<path style="fill:#225e76; stroke:none;" d="M193 88L194 89L193 88M196.667 88.3333L197.333 88.6667L196.667 88.3333M201.667 88.3333L202.333 88.6667L201.667 88.3333z"/>
<path style="fill:#377a9d; stroke:none;" d="M205 88L206 89L205 88M208 88L209 89L208 88M214 88L215 89L214 88M220 88L221 89L220 88M222 88L223 89L222 88z"/>
<path style="fill:#225e76; stroke:none;" d="M224.667 88.3333L225.333 88.6667L224.667 88.3333M229.667 88.3333L230.333 88.6667L229.667 88.3333z"/>
<path style="fill:#377a9d; stroke:none;" d="M234 88L235 89L234 88z"/>
<path style="fill:#225e76; stroke:none;" d="M235 88L236 89L235 88z"/>
<path style="fill:#377a9d; stroke:none;" d="M236 88L237 89L236 88z"/>
<path style="fill:#225e76; stroke:none;" d="M240 88L241 89L240 88z"/>
<path style="fill:#377a9d; stroke:none;" d="M241 88L242 89L241 88M245 88L246 89L245 88z"/>
<path style="fill:#71bedc; stroke:none;" d="M247 88L248 89L247 88z"/>
<path style="fill:#377a9d; stroke:none;" d="M249.667 88.3333L250.333 88.6667L249.667 88.3333z"/>
<path style="fill:#225e76; stroke:none;" d="M254.667 88.3333L255.333 88.6667L254.667 88.3333z"/>
<path style="fill:#377a9d; stroke:none;" d="M256 88L257 89L256 88M260 88L261 89L260 88z"/>
<path style="fill:#225e76; stroke:none;" d="M261 88L262 89L261 88z"/>
<path style="fill:#377a9d; stroke:none;" d="M264 88L265 89L264 88M266 88L267 89L266 88z"/>
<path style="fill:#71bedc; stroke:none;" d="M268.333 88.6667L268.667 89.3333L268.333 88.6667z"/>
<path style="fill:#225e76; stroke:none;" d="M270 88L271 89L270 88z"/>
<path style="fill:#377a9d; stroke:none;" d="M271 88L272 89L271 88z"/>
<path style="fill:#71bedc; stroke:none;" d="M277 88L278 89L277 88z"/>
<path style="fill:#377a9d; stroke:none;" d="M278 88L278 89L281 89L278 88z"/>
<path style="fill:#71bedc; stroke:none;" d="M281 88L282 89L281 88z"/>
<path style="fill:#377a9d; stroke:none;" d="M282 88L283 89L282 88z"/>
<path style="fill:#225e76; stroke:none;" d="M283 88L284 89L283 88z"/>
<path style="fill:#377a9d; stroke:none;" d="M284 88L285 89L284 88z"/>
<path style="fill:#71bedc; stroke:none;" d="M289 88L290 89L289 88z"/>
<path style="fill:#225e76; stroke:none;" d="M290 88L291 89L290 88z"/>
<path style="fill:#377a9d; stroke:none;" d="M291.667 88.3333L292.333 88.6667L291.667 88.3333z"/>
<path style="fill:#225e76; stroke:none;" d="M293.667 88.3333L294.333 88.6667L293.667 88.3333z"/>
<path style="fill:#71bedc; stroke:none;" d="M295 88L296 89L295 88z"/>
<path style="fill:#377a9d; stroke:none;" d="M298 88L299 89L298 88z"/>
<path style="fill:#225e76; stroke:none;" d="M299.667 88.3333L300.333 88.6667L299.667 88.3333z"/>
<path style="fill:#377a9d; stroke:none;" d="M305 88L306 89L305 88z"/>
<path style="fill:#225e76; stroke:none;" d="M306.667 88.3333L307.333 88.6667L306.667 88.3333z"/>
<path style="fill:#377a9d; stroke:none;" d="M308 88L309 89L308 88z"/>
<path style="fill:#225e76; stroke:none;" d="M312.667 88.3333L313.333 88.6667L312.667 88.3333M316.667 88.3333L317.333 88.6667L316.667 88.3333z"/>
<path style="fill:#71bedc; stroke:none;" d="M318 88L319 89L318 88z"/>
<path style="fill:#377a9d; stroke:none;" d="M321 88L322 89L321 88z"/>
<path style="fill:#225e76; stroke:none;" d="M322 88L323 89L322 88z"/>
<path style="fill:#377a9d; stroke:none;" d="M323 88L324 89L323 88M328.667 88.3333L329.333 88.6667L328.667 88.3333M333 88L334 89L333 88z"/>
<path style="fill:#71bedc; stroke:none;" d="M334 88L335 89L334 88z"/>
<path style="fill:#377a9d; stroke:none;" d="M337 88L338 89L337 88z"/>
<path style="fill:#225e76; stroke:none;" d="M338 88L339 89L338 88M341.667 88.3333L342.333 88.6667L341.667 88.3333z"/>
<path style="fill:#377a9d; stroke:none;" d="M343 88L344 89L343 88z"/>
<path style="fill:#71bedc; stroke:none;" d="M344 88L345 89L344 88z"/>
<path style="fill:#377a9d; stroke:none;" d="M345.667 88.3333L346.333 88.6667L345.667 88.3333M348 88L349 89L348 88z"/>
<path style="fill:#225e76; stroke:none;" d="M349 88L350 89L349 88z"/>
<path style="fill:#377a9d; stroke:none;" d="M353.667 88.3333L354.333 88.6667L353.667 88.3333M357.667 88.3333L358.333 88.6667L357.667 88.3333z"/>
<path style="fill:#71bedc; stroke:none;" d="M359 88L360 89L359 88z"/>
<path style="fill:#377a9d; stroke:none;" d="M361 88L362 89L361 88z"/>
<path style="fill:#225e76; stroke:none;" d="M362 88L363 89L362 88z"/>
<path style="fill:#71bedc; stroke:none;" d="M365 88L365 89L368 90L368 89L368 88L365 88z"/>
<path style="fill:#377a9d; stroke:none;" d="M366 88L367 89L366 88M368 88L369 89L368 88M374 88L375 89L374 88z"/>
<path style="fill:#225e76; stroke:none;" d="M375 88L376 89L375 88z"/>
<path style="fill:#377a9d; stroke:none;" d="M376 88L377 89L376 88z"/>
<path style="fill:#71bedc; stroke:none;" d="M377 88L378 89L377 88M380 88L381 89L380 88z"/>
<path style="fill:#225e76; stroke:none;" d="M381 88L382 89L381 88z"/>
<path style="fill:#71bedc; stroke:none;" d="M382 88L383 89L382 88z"/>
<path style="fill:#377a9d; stroke:none;" d="M385 88L386 89L385 88z"/>
<path style="fill:#225e76; stroke:none;" d="M386 88L387 89L386 88z"/>
<path style="fill:#377a9d; stroke:none;" d="M389.667 88.3333L390.333 88.6667L389.667 88.3333M394 88L395 89L394 88z"/>
<path style="fill:#225e76; stroke:none;" d="M395 88L396 89L395 88z"/>
<path style="fill:#377a9d; stroke:none;" d="M396 88L397 89L396 88z"/>
<path style="fill:#71bedc; stroke:none;" d="M397 88L398 89L397 88M400 88L401 89L400 88M402 88L403 89L402 88z"/>
<path style="fill:#377a9d; stroke:none;" d="M405 88L406 89L405 88z"/>
<path style="fill:#225e76; stroke:none;" d="M406 88L407 89L406 88z"/>
<path style="fill:#71bedc; stroke:none;" d="M409 88L410 89L409 88z"/>
<path style="fill:#377a9d; stroke:none;" d="M410 88L411 89L410 88z"/>
<path style="fill:#71bedc; stroke:none;" d="M412 88L413 89L412 88M25 89L26 90L25 89z"/>
<path style="fill:#225e76; stroke:none;" d="M26 89L27 90L26 89M55 89L56 90L55 89M57.6667 89.3333L58.3333 89.6667L57.6667 89.3333M80 89L81 90L80 89M89 89L91 91L89 89M94 89L95 90L94 89M97 89L98 90L97 89z"/>
<path style="fill:#71bedc; stroke:none;" d="M98 89L99 90L98 89M210 89L211 90L210 89z"/>
<path style="fill:#377a9d; stroke:none;" d="M211 89L212 90L211 89z"/>
<path style="fill:#71bedc; stroke:none;" d="M214 89L215 90L214 89z"/>
<path style="fill:#e6f1f5; stroke:none;" d="M219 89L220 90L219 89M223 89L224 90L223 89M231 89L232 90L231 89z"/>
<path style="fill:#377a9d; stroke:none;" d="M364.667 89.3333L365.333 89.6667L364.667 89.3333z"/>
<path style="fill:#225e76; stroke:none;" d="M368 89L369 90L368 89z"/>
<path style="fill:#377a9d; stroke:none;" d="M370 89L371 90L370 89M25 90L26 91L25 90z"/>
<path style="fill:#225e76; stroke:none;" d="M27 90L28 91L27 90M43 90L43 91L62 92L62 91L43 90M84 90L84 91L87 91L84 90z"/>
<path style="fill:#377a9d; stroke:none;" d="M96 90L97 91L96 90z"/>
<path style="fill:#71bedc; stroke:none;" d="M135.333 90.6667L135.667 91.3333L135.333 90.6667z"/>
<path style="fill:#225e76; stroke:none;" d="M136.333 90.6667L136.667 91.3333L136.333 90.6667z"/>
<path style="fill:#377a9d; stroke:none;" d="M210 90L211 91L210 90z"/>
<path style="fill:#225e76; stroke:none;" d="M213 90L214 91L213 90z"/>
<path style="fill:#71bedc; stroke:none;" d="M298 105L298 106C307.601 106 334.732 105.793 329 90L298 105z"/>
<path style="fill:#225e76; stroke:none;" d="M369 90L370 91L369 90z"/>
<path style="fill:#377a9d; stroke:none;" d="M19 91L20 92L19 91z"/>
<path style="fill:#71bedc; stroke:none;" d="M24 91L25 92L24 91z"/>
<path style="fill:#225e76; stroke:none;" d="M25 91L26 92L25 91M31 91L32 92L31 91M33 91L33 92L36 93L33 91M37 91L37 92L41 92L37 91z"/>
<path style="fill:#377a9d; stroke:none;" d="M94 91L95 92L94 91z"/>
<path style="fill:#71bedc; stroke:none;" d="M95 91L96 92L95 91M210 91L210 92L213 92L210 91z"/>
<path style="fill:#e6f1f5; stroke:none;" d="M228 91L229 92L228 91M259 91L260 92L259 91z"/>
<path style="fill:#71bedc; stroke:none;" d="M366.667 91.3333L367.333 91.6667L366.667 91.3333z"/>
<path style="fill:#225e76; stroke:none;" d="M14 92L15 93L14 92M17 92L15 96L20 96L17 92z"/>
<path style="fill:#377a9d; stroke:none;" d="M20 92L20 93L24 93L20 92z"/>
<path style="fill:#225e76; stroke:none;" d="M24 92L25 93L24 92M26.3333 92.6667L26.6667 93.3333L26.3333 92.6667M71.6667 92.3333L72.3333 92.6667L71.6667 92.3333M89 92L91 94L91 92L89 92M92 92L93 93L92 92z"/>
<path style="fill:#71bedc; stroke:none;" d="M93 92L94 93L93 92z"/>
<path style="fill:#225e76; stroke:none;" d="M12 93L13 94L12 93M33 93L34 94L33 93M67.6667 93.3333L68.3333 93.6667L67.6667 93.3333M81.6667 93.3333L82.3333 93.6667L81.6667 93.3333z"/>
<path style="fill:#71bedc; stroke:none;" d="M91 93L92 94L91 93z"/>
<path style="fill:#e6f1f5; stroke:none;" d="M138 93L139 102L140 102C140.655 98.2946 141.306 95.3455 138 93z"/>
<path style="fill:#71bedc; stroke:none;" d="M12 94L13 95L12 94z"/>
<path style="fill:#225e76; stroke:none;" d="M23.3333 94.6667L23.6667 95.3333L23.3333 94.6667M25.3333 94.6667L25.6667 95.3333L25.3333 94.6667M27 94L28 95L27 94z"/>
<path style="fill:#377a9d; stroke:none;" d="M32 94L33 95L32 94z"/>
<path style="fill:#71bedc; stroke:none;" d="M35 94L35 95L46 95L35 94z"/>
<path style="fill:#377a9d; stroke:none;" d="M46 94L46 95L51 95L46 94z"/>
<path style="fill:#225e76; stroke:none;" d="M51 94L51 95L54 95L51 94M85 94L86 95L85 94z"/>
<path style="fill:#377a9d; stroke:none;" d="M88 94L89 95L88 94z"/>
<path style="fill:#71bedc; stroke:none;" d="M89 94L90 95L89 94z"/>
<path style="fill:#377a9d; stroke:none;" d="M13 95L14 96L13 95z"/>
<path style="fill:#225e76; stroke:none;" d="M21 95L22 96L21 95M28 95L29 96L28 95z"/>
<path style="fill:#377a9d; stroke:none;" d="M31 95L32 96L31 95z"/>
<path style="fill:#71bedc; stroke:none;" d="M61 95L61 96L69 96L61 95z"/>
<path style="fill:#377a9d; stroke:none;" d="M69 95L69 96L74 96L69 95z"/>
<path style="fill:#225e76; stroke:none;" d="M74 95L74 96L78 96L74 95M81 95L81 96L84 96L81 95z"/>
<path style="fill:#377a9d; stroke:none;" d="M84 95L85 96L84 95z"/>
<path style="fill:#71bedc; stroke:none;" d="M85.6667 95.3333L86.3333 95.6667L85.6667 95.3333M254 95L255 96L254 95z"/>
<path style="fill:#377a9d; stroke:none;" d="M14 96L15 97L14 96z"/>
<path style="fill:#225e76; stroke:none;" d="M20 96L19 98L21 98L20 96M29 96L30 97L29 96z"/>
<path style="fill:#71bedc; stroke:none;" d="M30.6667 96.3333L31.3333 96.6667L30.6667 96.3333M15 97L16 98L15 97z"/>
<path style="fill:#377a9d; stroke:none;" d="M16 97L17 98L16 97z"/>
<path style="fill:#225e76; stroke:none;" d="M17 97L18 98L17 97z"/>
<path style="fill:#377a9d; stroke:none;" d="M21 97L21 98L25 98L21 97z"/>
<path style="fill:#71bedc; stroke:none;" d="M25 97L25 98L28 98L25 97M13 100L14 101L13 100M38 100L38 102L40 100L38 100M63 100L64 101L63 100M88 100L89 101L88 100M98 106L118 106C112.188 100.383 102.506 98.4791 98 106M113 100L114 101L113 100M131 100L128 106L136 106L136 101L131 100z"/>
<path style="fill:#377a9d; stroke:none;" d="M141 100L142 101L141 100z"/>
<path style="fill:#71bedc; stroke:none;" d="M163 100L164 101L163 100M213 100L214 101L213 100M238 100L239 101L238 100M263 100L264 101L263 100M288 100L289 101L288 100z"/>
<path style="fill:#377a9d; stroke:none;" d="M313 100L314 101L313 100z"/>
<path style="fill:#71bedc; stroke:none;" d="M338 100L339 101L338 100M363 100L364 101L363 100M388 100L389 101L388 100M413 100L414 101L413 100z"/>
<path style="fill:#225e76; stroke:none;" d="M141 101L141 106L142 106L141 101z"/>
<path style="fill:#71bedc; stroke:none;" d="M282 105L287 103C284.327 101.473 283.438 102.414 282 105z"/>
<path style="fill:#225e76; stroke:none;" d="M136 102L136 106L137 106L136 102z"/>
<path style="fill:#71bedc; stroke:none;" d="M142 102L142 106L161 106L142 102z"/>
<path style="fill:#377a9d; stroke:none;" d="M140 103L140 106L141 106L140 103z"/>
<path style="fill:#71bedc; stroke:none;" d="M227 105L227 106L246 106L245 103L227 105z"/>
</svg>
