<?xml version="1.0" standalone="no"?>
<!DOCTYPE svg PUBLIC "-//W3C//DTD SVG 20010904//EN"
 "http://www.w3.org/TR/2001/REC-SVG-20010904/DTD/svg10.dtd">
<svg version="1.0" xmlns="http://www.w3.org/2000/svg"
 width="441.000000pt" height="230.000000pt" viewBox="0 0 441.000000 230.000000"
 preserveAspectRatio="xMidYMid meet">

<g transform="translate(0.000000,230.000000) scale(0.100000,-0.100000)"
fill="#000000" stroke="none">
<path d="M1515 1305 c0 -335 1 -471 2 -302 2 170 2 444 0 610 -1 166 -2 28 -2
-308z"/>
<path d="M1463 1855 c0 -27 2 -38 4 -22 2 15 2 37 0 50 -2 12 -4 0 -4 -28z"/>
<path d="M1462 1770 c0 -14 2 -19 5 -12 2 6 2 18 0 25 -3 6 -5 1 -5 -13z"/>
<path d="M780 1753 c-47 -25 -80 -76 -80 -127 0 -30 -5 -44 -20 -54 -18 -11
-20 -23 -20 -126 0 -63 3 -121 6 -130 5 -14 30 -16 168 -16 113 0 166 4 174
12 8 8 12 50 12 125 0 100 -2 115 -20 133 -11 11 -20 33 -20 51 0 104 -110
177 -200 132z m93 -55 c34 -17 46 -39 47 -80 l0 -38 -80 0 -80 0 0 38 c1 69
58 110 113 80z m-9 -249 c-1 -53 -13 -91 -27 -86 -7 2 -13 14 -15 28 -2 13 -8
34 -14 46 -14 28 5 55 36 51 17 -2 21 -10 20 -39z"/>
<path d="M1463 1700 c0 -25 2 -35 4 -22 2 12 2 32 0 45 -2 12 -4 2 -4 -23z"/>
<path d="M1950 1395 l0 -285 60 0 60 0 0 32 0 31 23 -20 c36 -33 63 -43 117
-43 61 0 96 16 138 64 59 67 67 173 20 263 -50 99 -177 124 -255 51 l-23 -21
0 106 0 107 -70 0 -70 0 0 -285z m263 -5 c66 -52 30 -160 -54 -160 -11 0 -31
11 -44 25 -36 35 -34 88 4 126 35 34 59 36 94 9z"/>
<path d="M2542 1645 c-65 -33 -95 -84 -95 -161 0 -85 42 -124 183 -169 62 -20
80 -31 80 -50 0 -34 -98 -26 -184 16 -22 10 -40 18 -42 16 -1 -1 -16 -30 -33
-64 l-31 -62 27 -15 c60 -30 151 -48 225 -44 127 7 188 54 196 153 8 99 -31
143 -168 190 -78 27 -100 40 -100 61 0 34 76 26 180 -20 12 -5 23 8 43 49 15
30 27 59 27 64 0 20 -107 54 -180 58 -66 4 -81 1 -128 -22z"/>
<path d="M2940 1390 l0 -280 75 0 75 0 0 280 0 280 -75 0 -75 0 0 -280z"/>
<path d="M3190 1390 l0 -280 198 2 197 3 3 34 c2 19 1 50 -3 69 l-6 34 -117
-3 -117 -4 -3 43 -3 42 100 0 101 0 0 65 0 65 -101 0 -100 0 3 38 3 37 118 3
117 3 0 64 0 65 -195 0 -195 0 0 -280z"/>
<path d="M3660 1390 l0 -280 75 0 75 0 1 148 c0 81 3 140 6 132 6 -16 45 -104
70 -157 14 -30 20 -33 57 -33 l42 0 39 91 c22 50 43 93 48 96 4 2 7 -59 7
-136 l0 -141 75 0 75 0 0 280 0 280 -82 0 -83 0 -61 -130 -61 -130 -48 107
c-72 161 -63 153 -156 153 l-79 0 0 -280z"/>
<path d="M1713 1652 l-73 -3 0 -64 c0 -58 -2 -64 -22 -67 -20 -3 -23 -9 -23
-53 0 -44 3 -50 23 -53 21 -3 22 -7 22 -113 0 -158 21 -190 123 -191 58 0 137
18 137 32 0 5 -5 32 -11 60 -11 50 -12 51 -40 45 -48 -11 -59 7 -59 91 l0 73
38 3 37 3 3 53 3 52 -40 0 -40 0 -3 68 -3 67 -72 -3z"/>
<path d="M1461 1634 c0 -11 3 -14 6 -6 3 7 2 16 -1 19 -3 4 -6 -2 -5 -13z"/>
<path d="M1463 1530 c0 -36 2 -50 4 -32 2 17 2 47 0 65 -2 17 -4 3 -4 -33z"/>
<path d="M1463 1350 c0 -41 2 -58 4 -37 2 20 2 54 0 75 -2 20 -4 3 -4 -38z"/>
<path d="M1463 1190 c0 -36 2 -50 4 -32 2 17 2 47 0 65 -2 17 -4 3 -4 -33z"/>
<path d="M1090 1220 c-33 -13 -41 -20 -29 -25 9 -3 43 5 75 19 50 21 54 25 29
25 -16 -1 -50 -9 -75 -19z"/>
<path d="M1215 1205 c-61 -18 -115 -54 -115 -76 0 -21 9 -17 138 55 49 27 36
39 -23 21z"/>
<path d="M485 1186 c-27 -7 -54 -15 -60 -16 -5 -2 -21 2 -35 7 -34 14 -158 2
-171 -18 -13 -17 -3 -263 11 -289 6 -10 19 -22 31 -25 31 -10 138 5 155 22 13
13 46 13 263 3 170 -8 261 -8 286 -1 20 5 119 58 221 117 198 114 223 137 189
174 -10 11 -26 20 -35 20 -21 0 -142 -61 -216 -108 -57 -37 -141 -55 -306 -67
-86 -7 -98 -5 -98 9 0 19 12 22 165 36 135 12 163 26 151 74 -9 38 -41 46
-184 46 -74 0 -156 6 -197 15 -83 17 -104 17 -170 1z m-136 -240 c23 -28 -17
-68 -45 -45 -15 12 -19 41 -7 52 11 12 40 8 52 -7z"/>
<path d="M1462 960 c0 -61 2 -88 8 -74 4 11 5 54 0 95 l-7 74 -1 -95z"/>
<path d="M2500 1020 c0 -5 5 -10 10 -10 6 0 10 5 10 10 0 6 -4 10 -10 10 -5 0
-10 -4 -10 -10z"/>
<path d="M2584 1016 c-3 -9 -14 -16 -24 -16 -22 0 -37 -37 -21 -53 7 -7 25
-12 41 -13 29 -2 29 -1 23 45 -7 53 -10 60 -19 37z m-4 -51 c0 -8 -4 -15 -9
-15 -13 0 -22 16 -14 24 11 11 23 6 23 -9z"/>
<path d="M1743 1004 c-4 -11 1 -22 12 -30 18 -13 18 -14 1 -14 -22 0 -16 -24
8 -28 20 -4 46 15 46 33 0 6 -10 17 -22 23 -18 8 -19 11 -6 11 31 2 30 21 -2
21 -19 0 -33 -6 -37 -16z"/>
<path d="M2152 978 c2 -30 8 -44 19 -46 12 -2 15 5 13 35 -3 54 -2 53 -20 53
-12 0 -14 -9 -12 -42z"/>
<path d="M2300 975 c0 -33 4 -45 15 -45 11 0 15 12 15 45 0 33 -4 45 -15 45
-11 0 -15 -12 -15 -45z"/>
<path d="M2784 1007 c-2 -7 -2 -24 0 -37 2 -14 5 -28 5 -32 1 -5 7 -8 15 -8
14 0 15 21 7 83 -2 12 -21 8 -27 -6z"/>
<path d="M2867 988 c-6 -42 6 -56 47 -56 30 0 32 2 28 28 -3 19 -9 27 -17 24
-10 -4 -12 1 -8 15 4 17 1 21 -20 21 -20 0 -26 -6 -30 -32z"/>
<path d="M2992 978 c3 -36 7 -44 27 -46 13 -2 28 1 34 7 8 8 5 11 -11 11 -12
0 -22 5 -22 10 0 6 7 10 15 10 21 0 19 18 -2 23 -17 4 -17 5 0 6 30 2 18 21
-14 21 -29 0 -30 -1 -27 -42z"/>
<path d="M3300 1011 c0 -6 -18 -11 -40 -11 -39 0 -40 -1 -40 -35 0 -19 5 -35
10 -35 6 0 10 9 10 19 0 11 5 23 10 26 6 4 10 -5 10 -20 0 -33 22 -29 31 6 l6
24 4 -25 c7 -42 32 -31 33 15 1 30 -3 40 -16 43 -10 2 -18 -1 -18 -7z"/>
<path d="M4187 1007 c-6 -17 3 -66 14 -73 17 -10 31 7 19 21 -7 8 -9 18 -6 24
7 11 -3 41 -14 41 -4 0 -10 -6 -13 -13z"/>
<path d="M3518 1003 c-11 -3 -16 -14 -15 -36 2 -29 5 -32 35 -34 29 -1 32 1
32 28 0 30 -22 48 -52 42z"/>
<path d="M1827 993 c-4 -3 -7 -17 -7 -29 0 -26 27 -38 56 -27 16 6 15 8 -11
14 l-30 7 31 1 c21 1 34 -5 38 -15 7 -18 47 -15 54 4 2 8 -3 12 -13 10 -10 -2
-20 3 -22 10 -3 7 4 12 17 12 12 0 18 5 15 10 -10 16 -43 12 -53 -6 -8 -15
-10 -15 -15 0 -6 16 -47 22 -60 9z"/>
<path d="M1972 968 c3 -32 4 -33 56 -36 50 -2 52 -1 52 23 0 14 5 25 10 25 19
0 10 16 -10 17 -15 1 -20 -4 -20 -23 0 -14 -4 -22 -10 -19 -5 3 -10 15 -10 26
0 10 -4 19 -10 19 -5 0 -10 -9 -10 -20 0 -11 -4 -20 -10 -20 -5 0 -10 9 -10
20 0 11 -7 20 -16 20 -11 0 -14 -8 -12 -32z"/>
<path d="M2110 965 c0 -33 12 -46 25 -25 8 12 -5 60 -16 60 -5 0 -9 -16 -9
-35z"/>
<path d="M2200 996 c0 -1 5 -18 11 -36 9 -26 9 -34 -2 -41 -11 -7 -9 -9 8 -9
20 0 43 40 43 76 0 24 -20 15 -21 -8 l0 -23 -11 23 c-9 18 -28 31 -28 18z"/>
<path d="M2340 965 c0 -25 4 -35 12 -33 7 3 13 13 13 23 0 10 6 20 13 22 7 3
12 -5 12 -21 0 -14 5 -26 11 -26 6 0 9 14 7 33 -3 28 -7 32 -35 35 -32 3 -33
2 -33 -33z"/>
<path d="M2423 984 c-3 -9 -2 -24 4 -33 11 -18 43 -22 43 -6 0 6 -5 10 -12 10
-6 0 -13 6 -15 13 -3 7 4 12 16 12 12 0 21 5 21 10 0 17 -50 11 -57 -6z"/>
<path d="M2500 965 c0 -19 5 -35 10 -35 6 0 10 16 10 35 0 19 -4 35 -10 35 -5
0 -10 -16 -10 -35z"/>
<path d="M2627 994 c-24 -24 9 -72 40 -59 16 7 15 9 -7 15 l-25 8 28 1 c21 1
28 5 25 19 -3 17 -48 29 -61 16z"/>
<path d="M2700 966 c0 -20 5 -36 10 -36 6 0 10 9 10 19 0 27 18 36 22 11 5
-31 23 -24 23 8 0 23 -4 27 -32 30 -32 3 -33 2 -33 -32z"/>
<path d="M3073 965 c13 -43 32 -45 46 -4 13 38 13 39 2 39 -5 0 -12 -10 -16
-22 l-8 -23 -4 23 c-2 12 -10 22 -18 22 -10 0 -11 -7 -2 -35z"/>
<path d="M3144 986 c-10 -26 1 -51 23 -54 28 -4 50 32 32 54 -15 18 -48 18
-55 0z m43 -32 c-3 -3 -12 -4 -19 -1 -8 3 -5 6 6 6 11 1 17 -2 13 -5z"/>
<path d="M3380 965 c0 -38 17 -48 22 -13 5 32 28 35 28 3 0 -15 4 -24 10 -20
6 3 10 15 10 26 0 10 5 19 10 19 6 0 10 -11 10 -25 0 -14 5 -25 10 -25 6 0 10
15 10 34 l0 34 -55 1 -55 0 0 -34z"/>
<path d="M3580 966 c0 -39 17 -50 22 -14 5 32 28 35 28 4 0 -14 5 -26 11 -26
6 0 9 14 7 33 -3 28 -7 32 -35 35 -32 3 -33 2 -33 -32z"/>
<path d="M3665 990 c3 -5 13 -7 23 -4 9 2 7 -1 -6 -7 -33 -18 -24 -43 16 -45
35 -2 37 2 22 40 -7 19 -17 26 -35 26 -15 0 -24 -4 -20 -10z"/>
<path d="M3746 993 c-3 -4 -6 -17 -6 -30 0 -22 9 -28 39 -24 7 2 10 -3 6 -9
-4 -6 -15 -8 -26 -5 -11 4 -19 2 -19 -5 0 -7 13 -10 33 -8 30 3 32 6 35 44 3
39 2 41 -27 42 -16 0 -32 -2 -35 -5z m36 -28 c0 -5 -5 -11 -11 -13 -6 -2 -11
4 -11 13 0 9 5 15 11 13 6 -2 11 -8 11 -13z"/>
<path d="M3827 994 c-26 -26 14 -71 50 -57 16 6 15 8 -7 14 -25 7 -25 7 -2 8
17 1 22 6 20 19 -3 17 -48 29 -61 16z"/>
<path d="M3902 968 c3 -38 21 -44 26 -10 5 30 22 28 22 -3 0 -14 5 -25 10 -25
6 0 10 11 10 25 0 14 5 25 10 25 6 0 10 -11 10 -25 0 -14 5 -25 10 -25 6 0 10
16 10 35 l0 35 -56 0 -55 0 3 -32z"/>
<path d="M4032 988 c-6 -6 -12 -18 -12 -25 0 -18 35 -34 57 -26 16 6 15 8 -7
14 -25 7 -25 7 -2 8 17 1 22 6 20 19 -4 21 -39 27 -56 10z m33 -8 c3 -5 1 -10
-4 -10 -6 0 -11 5 -11 10 0 6 2 10 4 10 3 0 8 -4 11 -10z"/>
<path d="M4102 968 c3 -37 21 -45 26 -10 5 30 22 28 22 -3 0 -14 5 -25 11 -25
6 0 9 14 7 33 -3 28 -7 32 -36 35 -32 3 -33 2 -30 -30z"/>
<path d="M1461 773 c-1 -43 3 -73 9 -73 12 0 12 84 0 120 -6 18 -8 4 -9 -47z"/>
</g>
</svg>
